<svg transform="scale(2)" version="1.1" id="SDTwtHe5Mi" xmlns="http://www.w3.org/2000/svg" xmlns:xlink="http://www.w3.org/1999/xlink" x="0px" y="0px" width="500px" height="500px" viewBox="0 0 500 500" xml:space="preserve" class="pbimage_pbimage__wrapper__image__0LEis false"><title>404 Page Not Found 1</title><style type="text/css"> .st0{fill:#FFB0CC;} .st1{fill:#FFDC32;} .st2{fill:#000001;} .st3{fill:#005596;} .st4{fill:#FFFFFF;}
 .st4{fill:#FFFFFF;}
 .st3{fill:#005596;}
 .st2{fill:#000001;}
 .st1{fill:#FFDC32;}
 .st0{fill:#FFB0CC;}</style><g id="eyes"><g id="colors"><ellipse class="st0" transform="matrix(0.9228 -0.3852 0.3852 0.9228 -58.7208 108.2069)" cx="240.7" cy="200.66" rx="60.75" ry="71.5"></ellipse><ellipse class="st1" transform="matrix(0.9228 -0.3852 0.3852 0.9228 -57.7347 109.172)" cx="243.6" cy="198.68" rx="49" ry="61.75"></ellipse><path class="st2" d="M278.66,261.21c-3.87,2.28-7.83,4.39-11.89,6.32c0,0,3.79,9.21,4.52,9.26c3.97-0.34,8.03-1.43,11.06-4.03
			c0.29-0.25,0.59-0.54,0.67-0.92s-0.07-0.77-0.23-1.13C281.52,267.73,280.26,264.74,278.66,261.21z"></path><path class="st3" d="M281.22,273.02c-2.62,1.82-5.53,3.22-8.59,4.13l1.17,4.34l3.08,9.47c0,0,34.59,77.28,34.7,77.43
			c0.9,0.6,2.02,0.76,3.1,0.74c2.11-0.02,4.26-0.64,5.84-2.03c1.58-1.39,2.49-3.62,2-5.67l-33.77-77.94L281.22,273.02z"></path><path class="st2" d="M213.73,186.09c-1.37,2.12-2.4,5.03-0.89,7.05c1,1.35,2.83,1.81,4.51,1.83c1.89,0.02,3.75-0.39,5.59-0.82
			c8.46-1.99,16.83-4.49,25.43-5.76c8.6-1.28,17.58-1.28,25.77,1.63c2.62,0.93,5.14,2.15,7.77,3.08c0.81,0.28,1.8,0.5,2.43-0.07
			c0.3-0.27,0.45-0.67,0.56-1.06c0.86-3.04,0.13-6.4-1.58-9.05c-1.71-2.66-4.31-4.65-7.14-6.04c-5.08-2.48-10.92-3.09-16.56-2.59
			c-5.64,0.5-11.11,2.08-16.5,3.8c-7.43,2.37-14.77,5.01-22.01,7.94c-1.27,0.51-2.71,1.04-3.97,0.5c-0.62-0.26-1.12-0.77-1.77-0.96
			C214.73,185.37,213.93,185.79,213.73,186.09z"></path><path class="st4" d="M249.62,196.62c-2.66-0.49-5.4,0.84-7.74,3.4c0.44,0.51,0.87,1.09,1.42,1.9c0.14,0.21,0.28,0.43,0.43,0.63
			c-0.17-0.19-0.16-0.16,0.05,0.08c0.62,0.82,0.72,0.94,0.3,0.37c0.24,0.24,0.45,0.52,0.61,0.82c0.94,1.66,0.4,3.83-1.26,4.81
			c-1.5,0.88-4.04,0.48-4.81-1.26c-0.16-0.37-0.36-0.75-0.57-1.12c-0.74,1.78-1.34,3.74-1.73,5.83c-1.78,9.57,1.29,18.17,6.85,19.2
			c5.57,1.04,11.52-5.88,13.3-15.45C258.26,206.26,255.19,197.66,249.62,196.62z"></path><path class="st2" d="M247.9,196.81c-2.46-0.46-5.04,0.99-7.22,3.71c-0.03,0.21,2.04,6.34,2.04,6.34l-4.29-2.74
			c0,0-2.01,4.54-2.63,7.86c-1.73,9.3,0.88,17.58,5.84,18.51s10.37-5.87,12.1-15.17C255.46,206.02,252.85,197.73,247.9,196.81z"></path><circle class="st4" cx="252.1" cy="200.12" r="4.16"></circle><circle class="st4" cx="255.1" cy="207.85" r="3"></circle><ellipse class="st4" transform="matrix(0.3455 -0.9384 0.9384 0.3455 -18.6148 306.3905)" cx="210.34" cy="166.54" rx="16.62" ry="7.63"></ellipse><ellipse class="st4" cx="204.83" cy="190.22" rx="3" ry="4.12"></ellipse></g><g id="line-1"><path class="st4" d="M186.98,162.68c-0.85,0-1.81-0.54-1.99-1.48c-0.05-0.27,0.13-0.53,0.4-0.58c0.27-0.05,0.53,0.13,0.58,0.4
			c0.08,0.44,0.65,0.7,1.09,0.66c0.62-0.05,1.18-0.46,1.6-0.82c1.52-1.27,2.7-2.99,3.85-4.66c1.54-2.24,3.14-4.56,5.6-5.89
			c0.88-0.48,1.63-0.57,2.25-0.28c0.41,0.19,0.75,0.56,1.02,1.11c0.8,1.55,0.75,3.34,0.71,4.93c-0.01,0.28-0.24,0.51-0.51,0.49
			c-0.28-0.01-0.49-0.24-0.49-0.51c0.04-1.46,0.08-3.12-0.6-4.45c-0.17-0.34-0.36-0.56-0.56-0.66c-0.31-0.15-0.76-0.06-1.35,0.26
			c-2.25,1.21-3.71,3.33-5.25,5.58c-1.18,1.72-2.4,3.5-4.03,4.86c-0.53,0.45-1.26,0.97-2.16,1.04
			C187.09,162.68,187.04,162.68,186.98,162.68z"></path><path class="st4" d="M184.43,186.64c-0.05,0-0.09,0-0.14,0c-2.1-0.1-3.26-2.25-3.76-3.52c-0.58-1.47-0.95-3.01-1.09-4.56
			c-0.03-0.27,0.18-0.52,0.45-0.54c0.29-0.03,0.52,0.18,0.54,0.45c0.13,1.46,0.48,2.9,1.03,4.28c0.33,0.84,1.28,2.81,2.88,2.88
			c0.62,0.02,1.32-0.24,2.13-0.81c1.26-0.91,2.32-2.15,3.34-3.35c0.24-0.28,0.48-0.56,0.72-0.83c0.66-0.75,1.45-1.55,2.53-1.72
			c0.27-0.04,0.53,0.15,0.57,0.42s-0.15,0.53-0.42,0.57c-0.75,0.11-1.37,0.75-1.93,1.39c-0.23,0.27-0.47,0.55-0.71,0.82
			c-1.06,1.24-2.15,2.53-3.52,3.51C186.1,186.31,185.24,186.64,184.43,186.64z"></path><path class="st4" d="M183.91,205.78c-0.04,0-0.08,0-0.13,0c-1.13-0.04-2.28-0.69-3.24-1.84c-1.19-1.42-1.88-3.22-1.96-5.06
			c-0.01-0.28,0.2-0.51,0.48-0.52c0.27-0.02,0.51,0.2,0.52,0.48c0.07,1.62,0.68,3.21,1.72,4.46c0.45,0.54,1.37,1.44,2.51,1.48
			c1.31,0.04,2.4-1.05,2.93-1.7c0.81-1,1.43-2.19,2.03-3.35c0.9-1.74,1.84-3.54,3.44-4.79c0.22-0.17,0.53-0.13,0.7,0.09
			c0.17,0.22,0.13,0.53-0.09,0.7c-1.43,1.11-2.27,2.74-3.17,4.46c-0.62,1.2-1.27,2.45-2.14,3.52
			C186.9,204.48,185.6,205.78,183.91,205.78z"></path><path class="st4" d="M192.5,238.97c-0.26,0-0.48-0.21-0.5-0.47c-0.56-9.54,0.48-19.04,3.08-28.24c0.07-0.27,0.35-0.42,0.62-0.35
			c0.27,0.07,0.42,0.35,0.35,0.62c-2.57,9.09-3.59,18.48-3.04,27.91c0.02,0.28-0.19,0.51-0.47,0.53
			C192.52,238.97,192.51,238.97,192.5,238.97z"></path><path class="st4" d="M207.56,255.29c-0.19,0-0.37-0.11-0.45-0.29c-2.6-5.62-2.61-12.58-0.05-21.27c0.08-0.26,0.36-0.42,0.62-0.34
			c0.26,0.08,0.42,0.36,0.34,0.62c-2.5,8.45-2.5,15.18-0.01,20.57c0.12,0.25,0.01,0.55-0.24,0.66
			C207.7,255.27,207.63,255.29,207.56,255.29z"></path><path class="st4" d="M215.78,260.09c-1.1,0-2.22-0.25-3.24-0.88c-0.24-0.14-0.31-0.45-0.17-0.69c0.14-0.24,0.45-0.31,0.69-0.16
			c1.72,1.05,4.25,0.94,6.44-0.29c2.04-1.14,3.63-3.01,5.17-4.81l1.52-1.8c0.18-0.21,0.49-0.24,0.7-0.06
			c0.21,0.18,0.24,0.49,0.06,0.71l-1.51,1.78c-1.61,1.89-3.27,3.82-5.46,5.05C218.84,259.6,217.33,260.09,215.78,260.09z"></path><path class="st4" d="M233.97,269.12c-0.16,0-0.31-0.08-0.41-0.21c-0.16-0.23-0.1-0.54,0.13-0.7c3.68-2.55,6.07-6.58,8.1-10.55
			c0.13-0.25,0.43-0.34,0.67-0.22c0.25,0.13,0.34,0.43,0.22,0.67c-2.09,4.09-4.56,8.24-8.42,10.91
			C234.16,269.09,234.06,269.12,233.97,269.12z"></path><path class="st4" d="M242.99,271.08c-0.07,0-0.15-0.02-0.22-0.05c-1.07-0.53-1.82-1.69-1.96-3.04c-0.1-1.05,0.16-2.2,0.76-3.42
			c1.36-2.75,3.98-4.97,7.18-6.09c0.26-0.09,0.55,0.05,0.64,0.31c0.09,0.26-0.05,0.55-0.31,0.64c-2.96,1.04-5.37,3.08-6.62,5.59
			c-0.52,1.06-0.74,2.03-0.66,2.88c0.1,0.99,0.65,1.87,1.4,2.24c0.25,0.12,0.35,0.42,0.23,0.67
			C243.36,270.97,243.18,271.08,242.99,271.08z"></path><path class="st4" d="M258.09,270.15c-0.14,0-0.27-0.05-0.37-0.16c-0.19-0.2-0.17-0.52,0.03-0.71c1.86-1.7,2.98-4.12,3.74-6.05
			c0.23-0.58,0.45-1.16,0.67-1.74c0.65-1.71,1.33-3.49,2.28-5.12c0.14-0.24,0.45-0.32,0.68-0.18c0.24,0.14,0.32,0.45,0.18,0.68
			c-0.91,1.55-1.57,3.29-2.21,4.97c-0.22,0.59-0.45,1.17-0.68,1.76c-0.8,2.02-1.98,4.58-4,6.41
			C258.34,270.1,258.21,270.15,258.09,270.15z"></path><path class="st4" d="M279.29,248.72c-0.18,0-0.35-0.1-0.44-0.27c-0.13-0.24-0.04-0.55,0.21-0.68c2.2-1.16,4.69-1.41,7.11-1.65
			c2.43-0.24,4.72-0.48,6.74-1.54c0.24-0.13,0.54-0.04,0.67,0.21c0.13,0.24,0.04,0.55-0.21,0.68c-2.2,1.16-4.69,1.41-7.11,1.65
			c-2.43,0.24-4.72,0.48-6.74,1.54C279.44,248.7,279.36,248.72,279.29,248.72z"></path><path class="st4" d="M289.8,233.47c-0.1,0-0.2-0.03-0.28-0.09c-0.23-0.16-0.29-0.47-0.13-0.69c2.86-4.18,7.07-7.42,11.87-9.11
			c0.26-0.09,0.55,0.04,0.64,0.31s-0.04,0.55-0.31,0.64c-4.6,1.62-8.64,4.72-11.37,8.73C290.12,233.39,289.96,233.47,289.8,233.47z"></path><path class="st4" d="M294.75,207.51c-0.04,0-0.07,0-0.11-0.01c-0.27-0.06-0.44-0.33-0.38-0.6c1.21-5.34,3.52-10.52,6.69-14.99
			c0.16-0.23,0.47-0.28,0.7-0.12c0.23,0.16,0.28,0.47,0.12,0.7c-3.09,4.36-5.35,9.42-6.53,14.63
			C295.18,207.35,294.97,207.51,294.75,207.51z"></path><path class="st4" d="M293.88,197.83c-0.27,0-0.5-0.22-0.5-0.5c-0.03-3.7,0.47-7.35,1.5-10.85c0.14-0.47,0.28-0.94,0.43-1.42
			c0.74-2.39,1.51-4.85,1.02-7.22c-0.06-0.27,0.12-0.54,0.39-0.59c0.27-0.06,0.53,0.12,0.59,0.39c0.55,2.62-0.26,5.21-1.04,7.72
			c-0.15,0.47-0.29,0.94-0.43,1.4c-1,3.4-1.49,6.95-1.46,10.56C294.38,197.6,294.16,197.82,293.88,197.83
			C293.88,197.83,293.88,197.83,293.88,197.83z"></path><path class="st4" d="M283.48,169.73c-0.25,0-0.46-0.18-0.49-0.43c-0.54-3.97,0.02-8.02,1.59-11.71c0.11-0.25,0.4-0.37,0.66-0.26
			c0.25,0.11,0.37,0.4,0.26,0.66c-1.51,3.53-2.04,7.4-1.52,11.19c0.04,0.27-0.15,0.53-0.43,0.56
			C283.53,169.72,283.51,169.73,283.48,169.73z"></path><path class="st4" d="M279.54,163.34c-0.02,0-0.03,0-0.05,0c-0.28-0.03-0.48-0.27-0.45-0.54c0.24-2.53,0.35-4.95-0.94-6.71
			c-0.71-0.98-1.76-1.62-2.88-2.31l-0.52-0.32c-1.3-0.81-2.71-1.86-3.3-3.43c-0.36-0.96-0.35-1.98-0.35-2.97
			c0-1.07,0.01-2.08-0.44-2.93c-0.13-0.24-0.03-0.55,0.21-0.68c0.24-0.13,0.55-0.03,0.67,0.21c0.56,1.07,0.56,2.25,0.55,3.4
			c0,0.94-0.01,1.82,0.29,2.61c0.48,1.29,1.74,2.2,2.9,2.93l0.51,0.32c1.15,0.71,2.35,1.44,3.17,2.57c1.49,2.04,1.38,4.66,1.12,7.39
			C280.01,163.14,279.79,163.34,279.54,163.34z"></path><path class="st4" d="M249.76,141.49c-0.15,0-0.31-0.07-0.4-0.2c-1.72-2.34-3.86-4.94-6.64-6.4c-2.94-1.55-6.29-1.54-8.54,0.04
			c-1.42,0.99-2.39,2.53-3.32,4.02c-0.15,0.23-0.46,0.3-0.69,0.16c-0.23-0.15-0.3-0.46-0.16-0.69c0.99-1.57,2.02-3.2,3.6-4.3
			c2.55-1.78,6.31-1.82,9.58-0.1c2.96,1.56,5.19,4.26,6.98,6.7c0.16,0.22,0.12,0.54-0.11,0.7
			C249.96,141.45,249.86,141.49,249.76,141.49z"></path><path class="st4" d="M223.66,140.74c-0.04,0-0.08,0-0.12-0.01c-0.27-0.07-0.43-0.34-0.36-0.61c0.69-2.77,1.8-5.43,3.29-7.91
			c0.32-0.53,0.69-1.09,1.27-1.43c0.24-0.14,0.55-0.06,0.69,0.18c0.14,0.24,0.06,0.54-0.18,0.69c-0.39,0.23-0.66,0.65-0.93,1.09
			c-1.44,2.39-2.51,4.96-3.17,7.63C224.08,140.58,223.88,140.74,223.66,140.74z"></path></g><g id="line-2"><path class="st2" d="M255.11,211.35c-1.93,0-3.5-1.57-3.5-3.5s1.57-3.5,3.5-3.5s3.5,1.57,3.5,3.5S257.04,211.35,255.11,211.35z
			 M255.11,205.35c-1.38,0-2.5,1.12-2.5,2.5s1.12,2.5,2.5,2.5s2.5-1.12,2.5-2.5S256.48,205.35,255.11,205.35z"></path><path class="st2" d="M252.11,204.78c-2.57,0-4.66-2.09-4.66-4.66c0-2.57,2.09-4.66,4.66-4.66c2.57,0,4.66,2.09,4.66,4.66
			C256.76,202.69,254.67,204.78,252.11,204.78z M252.11,196.46c-2.02,0-3.66,1.64-3.66,3.66s1.64,3.66,3.66,3.66
			c2.02,0,3.66-1.64,3.66-3.66S254.12,196.46,252.11,196.46z"></path><path class="st2" d="M247.98,271.17c-25.74,0-51.75-18.05-63.8-46.92c-15.29-36.63-2.37-77.02,28.79-90.03l0,0
			c15.11-6.31,32.2-5.31,48.13,2.79c15.9,8.1,28.73,22.32,36.13,40.05c7.4,17.73,8.49,36.86,3.07,53.85
			c-5.43,17.02-16.75,29.87-31.86,36.18C261.83,269.86,254.92,271.17,247.98,271.17z M233.52,131.12c-6.92,0-13.73,1.34-20.17,4.02
			c-30.66,12.8-43.33,52.6-28.25,88.73c15.08,36.13,52.29,55.1,82.95,42.31c14.84-6.19,25.95-18.82,31.29-35.56
			c5.35-16.77,4.27-35.65-3.04-53.17c-7.31-17.51-19.98-31.56-35.66-39.55C251.78,133.39,242.55,131.12,233.52,131.12z
			 M213.16,134.68L213.16,134.68L213.16,134.68z"></path><path class="st2" d="M251.92,259.24c-7.83,0-15.91-2.18-23.71-6.48c-13.13-7.25-23.89-19.69-30.28-35.01
			c-13.22-31.67-3.49-66,21.7-76.51c12.22-5.1,26.21-3.91,39.37,3.37c13.13,7.25,23.89,19.69,30.28,35.01
			c6.4,15.32,7.67,31.71,3.6,46.15c-4.09,14.48-13.07,25.26-25.3,30.36C262.6,258.21,257.32,259.24,251.92,259.24z M235.29,139.12
			c-5.27,0-10.42,1.01-15.28,3.04c-24.68,10.3-34.17,44.04-21.16,75.2c6.31,15.12,16.91,27.38,29.84,34.52
			c12.9,7.12,26.57,8.3,38.51,3.32c11.93-4.98,20.71-15.53,24.72-29.71c4.02-14.22,2.75-30.38-3.56-45.49
			c-6.31-15.12-16.91-27.38-29.84-34.52C250.87,141.26,242.95,139.12,235.29,139.12z"></path><path class="st2" d="M252.52,268.51c-10.76,0-21.75-3.14-31.87-9.22c-13.91-8.35-25.23-21.74-31.9-37.7
			c-11.52-27.6-7.2-58.8,10.77-77.62c0.19-0.2,0.51-0.21,0.71-0.02c0.2,0.19,0.21,0.51,0.02,0.71
			c-17.69,18.54-21.94,49.3-10.57,76.54c6.58,15.77,17.77,28.99,31.49,37.23c13.56,8.15,28.72,10.94,42.69,7.85
			c0.27-0.06,0.54,0.11,0.6,0.38s-0.11,0.54-0.38,0.6C260.28,268.1,256.42,268.51,252.52,268.51z"></path><path class="st2" d="M282.74,271.53c-0.19,0-0.38-0.11-0.46-0.3l-4.19-9.64c-0.11-0.25,0.01-0.55,0.26-0.66
			c0.25-0.11,0.55,0.01,0.66,0.26l4.19,9.64c0.11,0.25-0.01,0.55-0.26,0.66C282.87,271.51,282.8,271.53,282.74,271.53z"></path><path class="st2" d="M272.17,277.2c-0.55,0-1.09-0.05-1.61-0.14c-0.33-0.07-0.5-0.11-4.56-9.08c-0.11-0.25,0-0.55,0.25-0.66
			c0.25-0.11,0.55,0,0.66,0.25c1.33,2.94,3.5,7.65,4.02,8.54c1.71,0.27,3.65-0.04,5.62-0.91c1.88-0.83,3.62-2.05,5.24-3.23
			c0.22-0.16,0.54-0.11,0.7,0.11c0.16,0.22,0.11,0.54-0.11,0.7c-1.66,1.21-3.45,2.47-5.42,3.33
			C275.33,276.83,273.7,277.2,272.17,277.2z"></path><path class="st2" d="M314.84,369.87c-1.47,0-2.77-0.46-3.66-1.34l0.04-0.04c-0.71-1.06-4.61-9.3-34.68-76.99l-4.03-13.09
			c-0.08-0.26,0.07-0.54,0.33-0.62c0.27-0.08,0.54,0.07,0.62,0.33l4.01,13.03c11.44,25.73,33.26,74.71,34.42,76.69
			c1.05,1.02,2.85,1.31,4.82,0.77c1.64-0.45,3.03-1.3,4.01-2.45c0.78-0.92,1.26-3.29,1.41-4.29l-33.97-77.96l-6.55-9.43
			c-0.16-0.23-0.1-0.54,0.13-0.7c0.23-0.15,0.54-0.1,0.7,0.13l6.6,9.52l34.08,78.17c0.04,0.08,0.05,0.18,0.04,0.27
			c-0.02,0.14-0.48,3.55-1.65,4.94c-1.11,1.31-2.67,2.26-4.51,2.77C316.25,369.77,315.53,369.87,314.84,369.87z"></path><path class="st2" d="M279,289.29c-0.21,0-0.4-0.13-0.47-0.33l-3.59-10.1c-0.09-0.26,0.04-0.55,0.3-0.64
			c0.26-0.1,0.55,0.04,0.64,0.3l3.59,10.1c0.09,0.26-0.04,0.55-0.3,0.64C279.12,289.28,279.06,289.29,279,289.29z"></path><path class="st2" d="M283.43,288.54c-0.18,0-0.36-0.1-0.45-0.27l-4.93-9.69c-0.13-0.25-0.03-0.55,0.22-0.67s0.55-0.03,0.67,0.22
			l4.93,9.69c0.13,0.25,0.03,0.55-0.22,0.67C283.59,288.52,283.51,288.54,283.43,288.54z"></path><path class="st2" d="M286.78,286.12c-0.16,0-0.31-0.07-0.41-0.21l-6.26-8.85c-0.16-0.23-0.11-0.54,0.12-0.7
			c0.22-0.16,0.54-0.11,0.7,0.12l6.26,8.85c0.16,0.23,0.11,0.54-0.12,0.7C286.98,286.09,286.88,286.12,286.78,286.12z"></path><path class="st2" d="M279.84,291.53c-0.34,0-0.68-0.04-1.01-0.14c-0.26-0.08-0.41-0.36-0.33-0.62c0.08-0.26,0.36-0.41,0.62-0.33
			c0.74,0.23,1.58,0.03,2.46-0.2c1.23-0.33,2.42-0.67,3.51-1.21c1.19-0.59,2.1-1.38,2.65-2.27c0.15-0.24,0.46-0.31,0.69-0.17
			c0.24,0.14,0.31,0.45,0.17,0.69c-0.64,1.05-1.7,1.97-3.05,2.65c-1.17,0.59-2.42,0.94-3.69,1.29
			C281.16,291.37,280.5,291.53,279.84,291.53z"></path><path class="st2" d="M233.77,244.46c-0.11,0-0.23-0.04-0.32-0.12c-10.8-8.96-17.26-22.68-17.27-36.71c0-0.28,0.22-0.5,0.5-0.5h0
			c0.28,0,0.5,0.22,0.5,0.5c0.01,13.74,6.33,27.18,16.91,35.95c0.21,0.18,0.24,0.49,0.07,0.7
			C234.06,244.39,233.92,244.46,233.77,244.46z"></path></g></g><g id="_x34_"><path class="st2" d="M154.02,270.97l-0.11-104.56h-36.17L38.47,273.56l3.02,23.46h82.2v36.32h30.14v-36.19h23.2v-26.18H154.02z
		 M123.83,199.77l-0.06,71.24l-52.74-0.04L123.83,199.77z"></path><path class="st2" d="M438.52,271.13l-0.11-104.56h-36.17l-79.28,107.16l3.02,23.46h82.2v36.32h30.14v-36.19h23.2v-26.18h-23V271.13
		z M408.33,199.93l-0.06,71.24l-52.74-0.04L408.33,199.93z"></path></g></svg>