<svg transform="scale(4)" version="1.1" id="EUBFrnZPiQ" xmlns="http://www.w3.org/2000/svg" xmlns:xlink="http://www.w3.org/1999/xlink" x="0px" y="0px" viewBox="0 0 500 500" xml:space="preserve" class="pbimage_pbimage__wrapper__image__0LEis false"><title>404 Page Not Found 1</title><style type="text/css"> .st0{fill:#EA8383;} .st1{fill:#000001;} .st2{fill:#F2EBEB;} .st3{fill:#A04040;} .st4{fill:#3299F5;}
 .st4{fill:#3299F5;}
 .st3{fill:#A04040;}
 .st2{fill:#F2EBEB;}
 .st1{fill:#000001;}
 .st0{fill:#EA8383;}</style><g id="character-1-2"><path class="st0" d="M383.9,353.6c0,0,1.3-5.7,0.8-7.5s-5.2-8.4-4.8-10.8s4.2-11.4,5.3-13.2s10.2-7.9,11.2-7.4s-0.4,2.5-0.4,2.5
		s1.6,1-1.6,3.6s-5.9,5.1-5.9,5.1l-0.1,1.8c0,0,3.4-3.3,3.9-2.9s-1.5,4.5-2.5,5.8c1.4,1.8,3.4,3,5.6,3.2c2.2,0.1,4.5-0.4,6.5-1.4
		c0,0-5,9.5-5.7,11.4S394,359,394,359S385.2,355,383.9,353.6z" fill="#EA8383"></path><path class="st1" d="M391.7,340.5c-0.6-0.4-1.1-0.8-1.6-1.4c-0.5-0.5-0.9-1-1.4-1.5c-0.4-0.5-0.8-1.1-1.2-1.6
		c-0.3-0.6-0.8-1.1-1.2-1.6c0.4-0.1,0.8,0,1.1,0.2c0.3,0.2,0.7,0.4,1,0.6c0.6,0.4,1.1,0.9,1.5,1.5c0.4,0.5,0.8,1.1,1.1,1.8
		C391.3,339.1,391.6,339.7,391.7,340.5z" fill="#000001"></path><path class="st1" d="M384.8,335.8c0.3-0.7,0.8-1.4,1.2-2.1c0.4-0.6,0.9-1.2,1.4-1.8c0.5-0.6,1-1.1,1.6-1.7s1.1-1.1,1.7-1.6
		c-0.1,0.8-0.4,1.6-0.8,2.3c-0.4,0.7-0.9,1.4-1.4,2c-0.5,0.6-1.1,1.2-1.7,1.6C386.3,335.1,385.6,335.5,384.8,335.8z" fill="#000001"></path><path class="st1" d="M396.4,332.7c-0.1,0.4-0.3,0.9-0.5,1.2c-0.2,0.4-0.4,0.7-0.6,1c-0.2,0.3-0.5,0.6-0.8,0.8
		c-0.3,0.3-0.6,0.6-1,0.8c-0.2-0.5-0.2-0.9,0-1.4c0.1-0.4,0.3-0.8,0.6-1.2c0.3-0.3,0.6-0.6,1-0.9
		C395.5,332.9,395.9,332.7,396.4,332.7z" fill="#000001"></path><path class="st2" d="M430.3,345.9c0,0,0.2,12.3,0,17.4s-37.9,27.5-47.6,26s1.2-35.7,1.2-35.7l10.6,5.7l-0.8,9.7L430.3,345.9z" fill="#F2EBEB"></path><path class="st2" d="M466.4,403.8c0,0-4.9-57.8-27.5-57.8c-16,0-21.9,24.3-20.2,30.8s8.7,10.6,8.7,10.6l2.5,16.5H466.4z" fill="#F2EBEB"></path><path class="st1" d="M427.4,341.3c-4.1,1.1-18.7,4.9-18.7,4.9s0.1-14.5,6.2-16.5S427.4,341.3,427.4,341.3z" fill="#000001"></path><path class="st0" d="M432,345.9c-0.9,1.3-1.6,1.6-1.7,0c-0.6-6.8-3.3-3.2-7.4-3c-7.8,0.4-13.5-8.7-13.5-8.7s-6.8-1.1-7.1-2.5
		s4.3-5.2,7-9.2s4.1-9.1,8.4-8.9s0.4,6.4,4,10.6c2.2,2.6,5.8,1.8,5.8,1.8s-0.1-4.9,5.4-2.3s-1.4,9.2-0.7,10.4
		c1.5,2.4,2.1,7,3.6,10.2C436,344.8,434.8,342.1,432,345.9z" fill="#EA8383"></path><path class="st1" d="M420.3,328c-0.2,0-0.4,0-0.6,0c-0.1,0-0.2,0-0.2,0s-0.1-0.1-0.1-0.3c0-0.2,0-0.4,0-0.6c0.5-0.5,0.8-0.4,1-0.2
		c0.1,0.1,0.2,0.3,0.2,0.5C420.6,327.6,420.5,327.8,420.3,328z" fill="#000001"></path><path class="st1" d="M418.6,328.8c-0.2,0-0.4,0-0.7-0.1c-0.1,0-0.2-0.1-0.3-0.1c0-0.1,0-0.2,0-0.3c0-0.2,0.1-0.4,0.1-0.6
		c0.2-0.2,0.4-0.3,0.7-0.3c0.2,0,0.4,0.1,0.5,0.3c0.1,0.1,0.1,0.3,0.1,0.5C419,328.4,418.8,328.7,418.6,328.8z" fill="#000001"></path><path class="st3" d="M419.1,336.2c-0.7-0.6-1.7-0.6-2.4,0c-1.1,1,1.8,3.8,3.7,2.8S419.1,336.2,419.1,336.2z" fill="#A04040"></path><path class="st1" d="M419,334.3c0.9,0.9,1.1,2.4,0.4,3.5c-0.3,0.5-0.8,1-1.4,1.2c-0.3,0.1-0.6,0.2-0.9,0.2c-0.3,0-0.6,0-0.9,0
		c0.2-0.2,0.4-0.4,0.6-0.6c0.2-0.2,0.4-0.4,0.5-0.5C418.2,337,418.9,335.7,419,334.3L419,334.3z" fill="#000001"></path><path class="st1" d="M418.7,322.3c-1-0.3-1.6-0.5-2.2-0.6c-0.3-0.1-0.6-0.1-1-0.2c-0.4-0.1-0.9-0.1-1.3-0.3
		c0.3-0.4,0.7-0.7,1.1-0.9c1-0.4,2-0.1,2.8,0.6C418.4,321.3,418.7,321.8,418.7,322.3z" fill="#000001"></path><path class="st3" d="M414.1,313.9c0,0,6.1,13.4,16.3,16.3c0,0-7.1,6.6-4.4,11s-5.1,8-3.8,11.7l41.2-14.9c0,0-6.8-10.8-15-8.7
		s-0.1-9.9-11.3-16.1S414.1,313.9,414.1,313.9z" fill="#A04040"></path><path class="st3" d="M466.4,336.9c-1.7-1.5-3.4-2.8-5.3-4c-1.8-1.2-3.8-2-5.9-2.6c-2.1-0.5-4.2-0.5-6.3,0c-2.1,0.6-4.1,1.6-5.9,2.9
		c1.5-1.8,3.4-3.2,5.5-4c2.2-0.8,4.7-0.9,7-0.4c2.3,0.6,4.4,1.6,6.2,3.1C463.5,333.3,465.1,335,466.4,336.9z" fill="#A04040"></path><path class="st1" d="M414.1,313.9c1.4,2.4,3,4.6,4.7,6.8c1.7,2.1,3.6,4,5.8,5.7c2.1,1.6,4.6,2.7,7.2,3.1c2.7,0.3,5.5,0,8-1
		c-2.4,1.5-5.3,2.3-8.1,2.1c-1.4-0.1-2.9-0.5-4.2-1c-1.3-0.5-2.6-1.3-3.8-2.1c-2.3-1.7-4.2-3.8-5.8-6.2
		C416.3,319,415,316.5,414.1,313.9z" fill="#000001"></path><path class="st1" d="M413.1,328.5c0,0-2,9.9-6,10.2c-10,0.5-10-5.4-10-5.4l6.9-11l8.8,4.6L413.1,328.5z" fill="#000001"></path><path class="st2" d="M275.2,296.2l127.1,38.1c0,0,8.9-7,0.1-13.5L301.7,202.9L275.2,296.2z" fill="#F2EBEB"></path><path class="st0" d="M423.5,352.7c0,0-2.9-5.1-2.9-7s2.5-9.5,1.5-11.8s-7.3-9.7-8.9-11.1s-12.1-4.6-12.9-3.9s1.1,2.3,1.1,2.3
		s-1.3,1.5,2.6,3s7.1,3.1,7.1,3.1l0.7,1.7c0,0-4.2-2.1-4.6-1.7s2.8,3.9,4,4.9c-0.8,2.1-2.4,3.8-4.5,4.7c-2.1,0.7-4.4,0.9-6.6,0.6
		c0,0,7.6,7.6,8.8,9.2s6.5,14.1,6.5,14.1S422.7,354.4,423.5,352.7z" fill="#EA8383"></path><path class="st1" d="M412.2,342.3c-0.1-0.7-0.1-1.4,0.1-2.1c0.1-0.7,0.3-1.4,0.5-2c0.3-0.7,0.6-1.3,1-1.9c0.2-0.3,0.5-0.6,0.7-0.8
		c0.3-0.3,0.6-0.4,1-0.5c-0.3,0.6-0.5,1.2-0.7,1.9c-0.2,0.6-0.4,1.3-0.7,1.9c-0.2,0.6-0.5,1.2-0.9,1.8
		C413,341.2,412.6,341.8,412.2,342.3z" fill="#000001"></path><path class="st1" d="M417.4,335.9c-0.8-0.1-1.6-0.3-2.4-0.6c-0.7-0.3-1.5-0.7-2.1-1.1c-0.7-0.4-1.3-0.9-1.9-1.5
		c-0.6-0.6-1.1-1.2-1.4-2c0.8,0.4,1.4,0.7,2.1,1.1s1.4,0.8,2,1.1c0.7,0.4,1.3,0.9,1.9,1.3C416.3,334.7,416.9,335.3,417.4,335.9z" fill="#000001"></path><path class="st1" d="M412.2,323.8c-1-0.1-2-0.2-2.9-0.4c-0.9-0.2-1.9-0.5-2.8-0.8s-1.8-0.6-2.7-0.9c-0.4-0.1-0.9-0.3-1.3-0.5
		c-0.2-0.1-0.4-0.1-0.7-0.2c-0.2,0-0.5-0.1-0.5,0.2c-0.1-0.1,0-0.3,0.1-0.4c0.1-0.1,0.2-0.2,0.4-0.2c0.3-0.1,0.5-0.1,0.8-0.1
		c0.5,0,1,0,1.5,0.1c1,0.1,1.9,0.3,2.9,0.6c0.9,0.3,1.8,0.7,2.7,1.1C410.6,322.7,411.4,323.2,412.2,323.8z" fill="#000001"></path><path class="st1" d="M418.9,332.7c-1-0.2-2-0.5-3-0.9c-0.9-0.4-1.9-0.8-2.8-1.2c-0.9-0.5-1.8-1-2.6-1.5c-0.9-0.5-1.7-1.2-2.5-1.7
		c1,0.1,2,0.3,3,0.7c1,0.3,1.9,0.8,2.8,1.2c0.9,0.5,1.8,1,2.6,1.5C417.3,331.4,418.2,332,418.9,332.7z" fill="#000001"></path><path class="st1" d="M405.5,336.3c0.5-0.1,0.9-0.1,1.4,0c0.4,0.1,0.8,0.3,1.2,0.5c0.4,0.3,0.7,0.6,0.9,1c0.3,0.4,0.4,0.9,0.4,1.4
		c-0.4-0.1-0.8-0.3-1.2-0.5c-0.4-0.2-0.7-0.3-1-0.6c-0.3-0.2-0.6-0.5-0.9-0.7C406,337,405.7,336.7,405.5,336.3z" fill="#000001"></path><path class="st1" d="M423.5,352.7c-0.9-1.1-1.6-2.3-2.3-3.6c-0.3-0.6-0.6-1.3-0.8-2c-0.3-0.7-0.4-1.5-0.3-2.3
		c0.5-2.8,1-5.5,1.2-8.3c0-0.7,0-1.3,0-2c0-0.1,0-0.3,0-0.5l-0.1-0.4c-0.1-0.3-0.2-0.6-0.4-0.9c-0.7-1.2-1.4-2.3-2.3-3.4
		c-1.7-2.2-3.5-4.4-5.3-6.5c2.2,1.8,4.3,3.7,6.2,5.8c1,1.1,1.9,2.2,2.6,3.5c0.2,0.3,0.4,0.7,0.5,1.1l0.2,0.6c0,0.2,0.1,0.4,0.1,0.6
		c0,0.7,0,1.5,0,2.2c-0.3,2.8-0.8,5.6-1.6,8.4c-0.1,0.6-0.1,1.3,0.1,1.9c0.1,0.7,0.3,1.3,0.5,2C422.3,350.1,422.8,351.4,423.5,352.7
		z" fill="#000001"></path><path class="st2" d="M305,297.8c4,1.2,7.9,2.5,11.9,3.7l11.8,3.8c7.9,2.6,15.7,5.3,23.6,7.9s15.7,5.4,23.5,8.2l11.7,4.2
		c3.9,1.5,7.8,2.9,11.6,4.4c-4-1.2-7.9-2.5-11.9-3.7l-11.8-3.8c-7.9-2.6-15.7-5.3-23.6-7.9s-15.7-5.4-23.5-8.2l-11.7-4.2
		C312.8,300.8,308.9,299.3,305,297.8z" fill="#F2EBEB"></path><path class="st1" d="M394.6,359.3c0.2,1.2,0.2,2.3,0.2,3.5c0,1.2-0.1,2.3-0.2,3.5c-0.1,1.1-0.3,2.3-0.5,3.4c-0.2,1.2-0.6,2.3-1,3.4
		c-0.2-1.2-0.2-2.3-0.2-3.5c0-1.1,0.1-2.3,0.2-3.4c0.1-1.1,0.3-2.3,0.5-3.4C393.8,361.5,394.1,360.4,394.6,359.3z" fill="#000001"></path><path class="st1" d="M458.4,399.6c-2,1.9-4.7,3-7.5,3c-2.8,0-5.5-0.7-8-2c-2.4-1.3-4.6-3-6.5-5c-1.9-1.9-3.7-4-5.4-6.1
		c-3.4-4.2-6.5-8.7-9.5-13.2s-5.8-9.1-8.5-13.8l-0.2-0.3l0.2-0.2c1.5-1.3,2.9-2.5,4.4-3.8s3-2.5,4.5-3.7c-1.4,1.4-2.8,2.7-4.1,4.1
		c-1.4,1.4-2.8,2.7-4.2,4l0.1-0.5c2.9,4.6,5.9,9,8.9,13.5s6.2,8.8,9.5,13c1.7,2.1,3.4,4.2,5.2,6.1c1.8,2,3.8,3.6,6.1,5
		c2.3,1.4,4.9,2.1,7.6,2.3C453.7,402.1,456.3,401.3,458.4,399.6z" fill="#000001"></path><path class="st1" d="M427,352.9c1.9,1.9,3.7,4,5.5,6s3.5,4.2,5.2,6.3s3.3,4.3,4.9,6.5s3.1,4.4,4.6,6.8c-1.9-1.9-3.7-4-5.5-6
		s-3.5-4.2-5.2-6.3s-3.3-4.3-4.9-6.5S428.4,355.2,427,352.9z" fill="#000001"></path><polygon class="st4" points="423.5,414 429.9,403.8 466.4,403.8 466.4,414 	" fill="#3299F5"></polygon></g><g id="bubble"><ellipse class="st2" transform="matrix(0.1602 -0.9871 0.9871 0.1602 127.6643 334.6515)" cx="260.5" cy="92.3" rx="7.1" ry="7.1"></ellipse><circle class="st2" cx="131.4" cy="63.2" r="7.7"></circle><circle class="st2" cx="44.2" cy="341.2" r="10.2"></circle><circle class="st2" cx="38.6" cy="168.9" r="5.6"></circle><circle class="st2" cx="179.8" cy="406.1" r="7.1"></circle><g id="bubble-2"><circle class="st2" cx="360.2" cy="48.2" r="7.1"></circle><circle class="st2" cx="396.9" cy="124.7" r="7.7"></circle><circle class="st2" cx="350" cy="447.6" r="10.2"></circle><circle class="st2" cx="245" cy="355.4" r="5.6"></circle></g></g><g id="_404"><path class="st4" d="M239.5,297.3c0,0,25.8,6.4,35.8,7s32.5-18,36.1-45.5s-1.6-49.1-7.9-54.9c-8.5-7.9-29.2-22.7-29.2-22.7
		L239.5,297.3z"></path><path class="st0" d="M274.2,181.3c0,0-21.8-13.7-47.3-5.8s-45.6,52.2-28.7,90.1s66.5,42.9,86,12.6S303.4,200,274.2,181.3z"></path><path class="st2" d="M284.3,236.6c0,0-5.7-20.8-32.2-22s-34.1,35.2-34.1,35.2s17-13.6,33.1-9.5S284.3,236.6,284.3,236.6z"></path><path class="st1" d="M231.8,261.6c1.4-1.9,3.3-3.5,5.4-4.6c3.2-1.8,7-2.5,10.6-2.1c1.2,0.2,2.4,0.5,3.6,0.9l0.9,0.3
		c0.3,0.1,0.6,0.2,0.8,0.4l1.6,0.9c0.5,0.3,1,0.7,1.4,1.1c0.4,0.4,0.9,0.8,1.3,1.2c-0.6-0.1-1.1-0.3-1.7-0.5
		c-0.5-0.2-1.1-0.4-1.6-0.5c-1.1-0.3-2.1-0.5-3.2-0.7c-1.1-0.2-2.1-0.3-3.2-0.4c-1.1,0-2.1,0-3.2,0.1c-2.1,0.2-4.3,0.7-6.3,1.3
		C236,259.8,233.9,260.6,231.8,261.6z"></path><path class="st1" d="M224.7,214.6c-1-0.4-1.9-1-2.6-1.7c-0.7-0.7-1.4-1.4-1.9-2.2c-0.6-0.8-1-1.7-1.4-2.6c-0.4-1-0.6-2-0.7-3.1
		c1,0.4,1.9,1,2.6,1.7c1.4,1.3,2.6,3,3.3,4.8C224.4,212.5,224.6,213.6,224.7,214.6z"></path><path class="st1" d="M244.6,198.4c0.4,0.8,0.7,1.6,0.8,2.5c0.1,0.8,0.1,1.6,0.1,2.4c-0.1,0.8-0.2,1.5-0.4,2.2
		c-0.1,0.4-0.2,0.7-0.4,1.1c-0.1,0.2-0.1,0.4-0.2,0.5s-0.1,0.1-0.1,0.2s0,0.1,0.1,0.1l0.2,0.1c0,0.2-0.2,0.3-0.4,0.3
		c-0.2,0-0.4-0.1-0.5-0.2c-0.2-0.2-0.4-0.4-0.5-0.7c-0.2-0.4-0.4-0.8-0.5-1.3c-0.2-0.8-0.3-1.7-0.2-2.5c0.1-0.8,0.3-1.6,0.6-2.4
		C243.4,199.8,243.9,199,244.6,198.4z"></path><path class="st1" d="M274.2,202.9c-0.2,0.9-0.6,1.8-1.1,2.6c-0.5,0.7-1,1.4-1.7,1.9c-0.6,0.6-1.4,1.1-2.1,1.5
		c-0.8,0.4-1.7,0.7-2.7,0.8c0.2-0.9,0.6-1.8,1.1-2.6c0.5-0.7,1-1.4,1.7-2c0.6-0.6,1.4-1.1,2.1-1.5
		C272.4,203.3,273.3,203,274.2,202.9z"></path><path class="st1" d="M252.1,214.6c0,0,15.3,11.6,3.1,26.5c0,0-23.1,0.8-24.5,1.4s-6.5-11.4-1.8-16.4S243.4,213.4,252.1,214.6z"></path><path class="st1" d="M218.1,249.8c0.2-4.1,1-8,2.4-11.8c1.4-3.8,3.4-7.4,5.9-10.7c2.5-3.3,5.5-6.2,8.9-8.5l1.3-0.9l1.3-0.8
		c0.9-0.5,1.8-1,2.7-1.5c1.9-0.9,3.8-1.6,5.9-2.2c2-0.5,4.1-0.9,6.2-1c2.1-0.1,4.2,0,6.3,0.4c4.1,0.7,8,2.2,11.6,4.5
		c3.5,2.2,6.6,5,9.1,8.3c2.5,3.2,4.2,7,4.8,11.1c-1.1-3.8-3.1-7.3-5.9-10.1c-2.6-2.9-5.7-5.3-9.1-7.2c-6.7-3.9-14.6-4.9-22.1-3
		c-1.8,0.5-3.6,1.2-5.4,2c-0.9,0.4-1.7,0.9-2.5,1.4l-1.3,0.7l-1.2,0.8c-3.3,2.1-6.2,4.7-8.7,7.6c-2.5,3-4.7,6.3-6.3,9.8
		C220.1,242.1,218.8,245.9,218.1,249.8z"></path><path class="st2" d="M231.8,182.7c-2.6,1.5-5.1,3.1-7.5,5c-2.4,1.8-4.6,3.8-6.7,5.9c-4.2,4.2-7.7,9.1-10.4,14.4
		c-2.7,5.3-4.3,11.1-4.9,17c-0.3,2.9-0.3,5.9-0.1,8.9c0.2,3,0.5,5.9,0.9,8.9c0.9,5.8,2.5,11.6,4.8,17c2.3,5.4,5.6,10.4,9.8,14.5
		c4.2,4.1,9.4,7,15,8.6c5.7,1.5,11.6,1.8,17.4,1c2.9-0.3,5.8-1,8.6-1.8c2.8-0.9,5.5-2,8.1-3.4c5.1-2.9,9.6-6.8,13.1-11.5
		c7-9.5,10.3-21.4,10.5-33.2c0-5.9-0.8-11.8-2.5-17.5c-1.6-5.7-4.1-11.2-7.3-16.1c-3.2-5-7.5-9.3-12.5-12.4c-5.2-3.1-11-4.8-17-5
		c3,0,6,0.4,8.9,1.2c2.9,0.8,5.7,1.9,8.3,3.4c5.2,3.1,9.7,7.3,13.1,12.4c3.4,5,5.9,10.5,7.7,16.3c1.8,5.8,2.7,11.8,2.8,17.9
		c0,6.1-0.8,12.2-2.6,18c-1.7,5.9-4.4,11.4-8,16.3c-3.6,5-8.2,9.1-13.6,12.1c-2.7,1.5-5.5,2.7-8.4,3.6c-2.9,0.9-5.9,1.5-8.9,1.9
		c-6.1,0.8-12.3,0.4-18.2-1.1c-5.9-1.7-11.4-4.8-15.8-9.1c-4.3-4.3-7.8-9.5-10.1-15.1c-2.3-5.6-3.9-11.5-4.7-17.5
		c-0.4-3-0.7-6-0.8-9c-0.2-3-0.1-6.1,0.2-9.1c0.7-6,2.4-11.9,5.2-17.3c2.8-5.3,6.5-10.2,10.9-14.3
		C221.6,189.1,226.5,185.5,231.8,182.7z"></path><path class="st2" d="M273.4,302.4c2.2-1.3,4.3-2.6,6.4-4c2.1-1.3,4.1-2.8,6-4.4c1.9-1.5,3.7-3.2,5.3-5.1c1.6-1.9,3-4,4.1-6.2
		c-0.4,2.6-1.4,5-2.8,7.2c-1.5,2.1-3.3,4-5.3,5.7c-2,1.6-4.2,3-6.5,4.2C278.3,300.9,275.9,301.8,273.4,302.4z"></path><path class="st1" d="M409.8,243l-22.2,1.5l-2.7-86.6c0,0-11.1-2.9-12.9-2.9s-63.8,93.7-63.8,93.7v7h51.5l-1.8,53.2h31.6l-1.6-52.7
		l21.8,1.9L409.8,243z M360.2,243.4c0,0-35.8,3.7-34.1,0s34.1-44.7,34.1-44.7V243.4z"></path><path class="st1" d="M198.1,248l-22.2,1.5l-2.7-86.7c0,0-11.1-2.9-12.9-2.9s-63.8,93.7-63.8,93.7v7H148l-1.8,53.3h31.6l-1.6-52.7
		l21.8,1.9L198.1,248z M148.5,248.4c0,0-35.8,3.7-34.2,0s34.2-44.7,34.2-44.7V248.4z"></path><g id="lines"><path class="st4" d="M185.2,157.7c1-1,2.1-1.9,3.3-2.8c1.2-0.8,2.3-1.6,3.6-2.3c1.2-0.7,2.5-1.3,3.8-1.9c1.3-0.6,2.7-1.1,4.1-1.4
			c-1,1-2.1,1.9-3.3,2.8c-1.1,0.8-2.3,1.6-3.6,2.3c-1.2,0.7-2.5,1.3-3.8,1.9C188,156.9,186.6,157.4,185.2,157.7z"></path><path class="st4" d="M174,144.1c0-0.9,0.1-1.9,0.4-2.8c0.2-0.9,0.5-1.8,0.8-2.7c0.6-1.7,1.2-3.5,1.9-5.1c0.7-1.7,1.5-3.3,2.4-4.9
			c0.9-1.6,1.8-3.2,2.9-4.7c-0.4,1.8-0.9,3.6-1.5,5.3c-0.6,1.7-1.3,3.4-2,5.1s-1.5,3.3-2.3,4.9c-0.4,0.8-0.8,1.6-1.3,2.4
			S174.3,143.2,174,144.1z"></path><path class="st4" d="M156.7,143.8c-0.7-1.1-1.2-2.3-1.7-3.5c-0.9-2.4-1.5-4.8-1.8-7.3c-0.2-1.3-0.2-2.6-0.2-3.9
			c0.7,1.1,1.2,2.3,1.7,3.5c0.4,1.2,0.8,2.4,1.1,3.6c0.3,1.2,0.5,2.5,0.7,3.7C156.8,141.2,156.8,142.5,156.7,143.8z"></path><path class="st4" d="M138.8,152.9c-1.1-0.6-2.1-1.2-3-2c-0.9-0.7-1.8-1.5-2.6-2.4c-0.8-0.8-1.6-1.7-2.2-2.7
			c-0.7-0.9-1.3-1.9-1.8-3c1.1,0.6,2.1,1.2,3,2c0.9,0.7,1.8,1.5,2.6,2.4c0.8,0.8,1.6,1.7,2.2,2.7
			C137.7,150.8,138.3,151.8,138.8,152.9z"></path><path class="st4" d="M121,165.3c0.9-0.3,1.9-0.5,2.8-0.5c0.9-0.1,1.9-0.1,2.8,0c0.9,0.1,1.9,0.2,2.8,0.5c0.9,0.2,1.8,0.6,2.7,1
			c-0.9,0.3-1.9,0.5-2.9,0.5c-0.9,0.1-1.9,0.1-2.8,0c-0.9-0.1-1.8-0.2-2.8-0.5C122.8,166.1,121.9,165.8,121,165.3z"></path></g></g></svg>