<svg xmlns='http://www.w3.org/2000/svg' width='400' height='400'>
      <defs><style>.cls-path-cs3-male-1R{clip-path:url(#clip-path-cs3-male-1R)}.cls-path-cs3-male-1L{clip-path:url(#clip-path-cs3-male-1L)}.cls-multipy{mix-blend-mode: multiply;}.cls-softlight{mix-blend-mode: soft-light;}.cls-overlay{mix-blend-mode: overlay;}.cls-colorburn{mix-blend-mode: color-burn;}.cls-screen{mix-blend-mode: screen;}.cls-lighten{ mix-blend-mode: darken;}</style>
      <clipPath id="clip-path-cs3-male-1R"><path fill="#none" d="M267.64,162.81a4.41,4.41,0,0,1-.94,2.89c-5.69,8-42.15,7-43.17,6.2a1.26,1.26,0,0,0-.6-.27,3.55,3.55,0,0,0-2.13.53h0c.28-.21.17-2,.2-2.38a8.84,8.84,0,0,1,.62-2.6c.09-.23.2-.46.3-.71a29.12,29.12,0,0,1,5.39-8.31c7.56-7.82,20.46-6.17,29.81-2.9C260.21,156.36,267.31,158.86,267.64,162.81Z"></path></clipPath><clipPath id="clip-path-cs3-male-1L"><path fill="#none" d="M132.36,163.71a4.41,4.41,0,0,0,.94,2.9c5.69,8,42.15,7,43.17,6.2a1.38,1.38,0,0,1,.6-.28,3.55,3.55,0,0,1,2.13.53s0,0,0,0c-.28-.22-.17-2.06-.2-2.39a8.77,8.77,0,0,0-.62-2.59c-.09-.23-.2-.47-.3-.71a29.3,29.3,0,0,0-5.39-8.32c-7.56-7.81-20.46-6.17-29.81-2.9C139.79,157.26,132.69,159.76,132.36,163.71Z"></path></clipPath></defs><path fill="#f9d1c0" d="M393.17,400H6.83s4.5-20,5.25-24.64S136.62,325.91,139,324c1.47-1.21,3.35-27.08,4.52-45.79.67-10.75,1.12-19.13,1.12-19.13H255.42s1.41,27,3.05,46.2c.85,10.12,1.78,18.06,2.58,18.72,2.33,1.91,126.12,46.68,126.87,51.36S393.17,400,393.17,400Z" class="canChange" style="fill:rgb(227, 209, 181)"></path><path fill="#d177b8" opacity="0.44" d="M258.47,305.28c-5.58.62-14.35,2.15-20.11,5.88-9.05,5.85-20.63,31.31-38.47,30.54s-40.48-48.61-44-55c-2.07-3.73-7.91-6.7-12.41-8.51.67-10.75,1.12-19.13,1.12-19.13H255.42S256.83,286.09,258.47,305.28Z" class="cls-multipy"></path><path fill="#f9d1c0" d="M280.58,163.11s12.05-18.35,20.22-18.31c5,0,17,10.47,16.84,20.44-.18,13.35-12,28.5-14.94,36.28s-10.56,17.92-15.63,18.9-11.67-8.62-11.67-8.62S277.86,175.21,280.58,163.11Z" class="canChange" style="fill:rgb(227, 209, 181)"></path><path fill="#d177b8" opacity="0.44" d="M281.47,182.64s19.78-24.43,27-24.43,7.19,13.9,4.29,21.83c-2,5.49-5.93,13.43-5.93,13.43s3.1-8.53,3.48-14.9c.57-9.81-1.61-16.94-4.09-16.93-4.55,0-8.14,6.26-8.71,8.47s3.6,11.89,2.49,18.64-5.15,9.32-6.5,8.58.74-8.34-.49-11-4.78-6.62-6.86-5.76S281.47,182.64,281.47,182.64Z" class="cls-multipy"></path><path fill="#d177b8" opacity="0.44" d="M281.47,182.64s4.88-2.91,6.36-2,5.25,4.32,5.4,6.45-1.19,8.19,0,9.24,5.5-5.78,5.69-11.81-3.19-13-3.19-13.82.79-4.69.79-4.69S285,176.91,281.47,182.64Z" class="cls-multipy"></path><path fill="#f9d1c0" d="M119.42,163.11s-12-18.35-20.22-18.31c-5,0-17,10.47-16.84,20.44.18,13.35,12,28.5,14.94,36.28s10.56,17.92,15.63,18.9,11.67-8.62,11.67-8.62S122.14,175.21,119.42,163.11Z" class="canChange" style="fill:rgb(227, 209, 181)"></path><path fill="#d177b8" opacity="0.44" d="M118.53,182.64s-19.78-24.43-27-24.43-7.19,13.9-4.29,21.83c2,5.49,5.93,13.43,5.93,13.43s-3.1-8.53-3.48-14.9c-.57-9.81,1.61-16.94,4.09-16.93,4.55,0,8.14,6.26,8.71,8.47S98.91,182,100,188.75s5.15,9.32,6.5,8.58-.74-8.34.49-11,4.78-6.62,6.86-5.76S118.53,182.64,118.53,182.64Z" class="cls-multipy"></path><path fill="#d177b8" opacity="0.44" d="M118.53,182.64s-4.88-2.91-6.36-2-5.25,4.32-5.4,6.45,1.19,8.19,0,9.24-5.5-5.78-5.69-11.81,3.19-13,3.19-13.82-.79-4.69-.79-4.69S115,176.91,118.53,182.64Z" class="cls-multipy"></path><path fill="#f9e8da" d="M284.05,171.6c-.92,10-2.53,19.49-3.65,29.41-4.24,12.72-10.86,31.87-17.76,49-5.66,14-11.5,26.68-16.39,33.38-2.22,3-4.24,4.85-6,5-5.48.51-13.29,1.07-20.58,1.56-9.81.64-18.68,1.16-19.71,1.21s-9.9-.56-19.69-1.21c-7.3-.48-15.12-1.05-20.6-1.56-1.72-.16-3.73-2-5.94-5C148.87,276.72,143,264,137.35,250c0,0,0,0,0,0-6.89-17.11-13.5-36.21-17.73-48.92-1.13-9.94-2.76-19.46-3.66-29.46-1.31-14.39-2.94-70.73,1.3-82.19S171.87,47.23,200,47.23c19.74,0,50.45,15.14,68.45,28.14,7.65,5.51,13,10.64,14.28,14C287,100.87,285.36,157.21,284.05,171.6Z" class="canChange" style="fill:rgb(227, 209, 181)"></path><path fill="#d177b8" opacity="0.4" d="M284.05,171.6c-.06.64-.12,1.29-.19,1.93s-.12,1.19-.19,1.79c-.26,2.47-.56,4.92-.88,7.36-.21,1.61-.43,3.22-.65,4.83-.36,2.62-.72,5.25-1.06,7.9-.19,1.51-.38,3-.56,4.54L280.4,201c-4.24,12.71-10.85,31.85-17.75,49-.77,1.15-1.58,2.29-2.4,3.43-.5.71-1,1.41-1.54,2.11,3.26-13.89,6.81-38.23,9.38-47.85,3.34-12.48,7.43-29.21,7.43-29.21-1-7.13-7.07-7.13-7.07-7.13-19,10.37-46.74,1.79-46.74,1.79-3.32-15.75-2.16-43-2.16-43l.75-5.35,51.48-2.52s-4.58-11-4.17-17.66,2.86-24.47.84-29.19c7.65,5.51,13,10.64,14.28,14C287,100.87,285.36,157.21,284.05,171.6Z" class="cls-multipy"></path><path fill="#d177b8" opacity="0.4" d="M178.32,173.13s-27.73,8.58-46.75-1.79c0,0-6.11,0-7.07,7.13,0,0,4.1,16.73,7.44,29.21,2.58,9.63,6.12,34,9.38,47.9-.54-.72-1.07-1.44-1.59-2.17-.33-.47-.67-.94-1-1.41-.47-.66-.93-1.33-1.39-2,0,0,0,0,0,0-6.88-17.08-13.48-36.14-17.71-48.85-1.12-10-2.74-19.51-3.66-29.53-1.3-14.39-2.93-70.73,1.32-82.19,1.27-3.4,6.63-8.53,14.28-14-2,4.72.42,22.48.84,29.19s-4.16,17.66-4.16,17.66l51.48,2.52.75,5.35S181.63,157.38,178.32,173.13Z" class="cls-multipy"></path><path fill="#d177b8" opacity="0.6" d="M246.25,283.4c-2.22,3-4.24,4.85-6,5-5.48.51-13.29,1.07-20.58,1.56-9.81.64-18.68,1.16-19.71,1.21s-9.9-.56-19.69-1.21c-7.3-.48-15.12-1.05-20.6-1.56-1.72-.16-3.73-2-5.94-5C168.65,287.31,202.27,293.22,246.25,283.4Z" class="cls-multipy"></path><path fill="#462d4d" d="M183.29,33.47A55.3,55.3,0,0,1,210.14,28C226,28.59,244,36.68,244,36.68L200.46,58.94l-19.62-6.81Z"></path><path fill="#65416e" d="M292.87,99.78l-4.37-3L285,155s-2.1-20.85-4.84-31.42S278,91.9,278,91.9,261.3,72.63,245.71,68.19c0,0-20.41,2.29-51.05,3.37s-48.24.61-48.24.61S126,82.87,119.52,93.59c0,0,.16,16.21-.32,24.77s-5,37.89-5,37.89,0-.11,0-.31c-.26-3.67-2.79-38.39-5.48-52.73-.09-.5-.19-1-.27-1.52v0c-.3-1.8-.53-3.64-.71-5.48a1.1,1.1,0,0,0,0-.16,133.11,133.11,0,0,1-.37-17.94c0-.34,0-.67,0-1s0-.61,0-.91,0-.53.06-.77,0-.52,0-.76c0-.57.07-1.11.11-1.58,0-.26,0-.51.07-.72a.53.53,0,0,1,0-.13c0-.23,0-.43,0-.62,0-.43.08-.76.09-1a.86.86,0,0,0,0-.15.88.88,0,0,1,0-.19l.55.15,3.77,6.94.06-.06.06-.07,0,0,.24-.25c1.09-1.22,4.6-5,9.63-10,.26-.28.54-.55.81-.82l.23-.23c.45-.45,1-1,1.61-1.56l.49-.46c4.85-4.69,10.74-10,17.11-15.1a.53.53,0,0,1,.12-.1c.22-.17.43-.35.66-.51,2.29-1.81,4.64-3.58,7-5.27,20.13-14.21,43.11-21.56,43.11-21.56h10.41S191.77,40.25,189.11,52.1c.36-.76,12.09-25.37,21.68-30.79a41.07,41.07,0,0,1,19.68,3.44s-17.5,14-21.81,25c.71-.57,29.52-23.44,50.53-11.48A45.34,45.34,0,0,0,247,37.72s6.08,2.41,15.59,12.5c1.4,1.48,3,3.3,4.66,5.34C277,67.46,290.19,87.5,292.87,99.78Z" class="canChange" style="fill:null"></path><path fill="#7a4e85" d="M197.56,71.45s26.61-51.06,61.68-33.16c0,0-33.28-2.45-56.79,33Z"></path><path fill="#7a4e85" d="M210.79,21.31s-21.45,21.36-24.6,50.14h11.37s2.51-28.07,25.32-49.2A74.58,74.58,0,0,0,210.79,21.31Z"></path><path fill="#7a4e85" d="M193.45,21.31S176.36,43.48,175,72.09c0,0,3.22-26.23,22.57-50.78Z"></path><path fill="#7a4e85" d="M110.33,76.73A165,165,0,0,0,121,91.39l-1.51,2.19,0,6.2a27.52,27.52,0,0,1-11.61-11.06V70.27Z"></path><path fill="#7a4e85" d="M139.78,50.8s-8.34,9.4-10.47,32.52l4.09-3.07s-.7-19.68,12.5-34.15Z"></path><path fill="#7a4e85" d="M220.52,70.27S237,50.45,265.07,50l-1.44,1.41,10,2.26s-15.56,3.14-27.92,14.53Z"></path><path fill="#d177b8" opacity="0.6" d="M292.87,99.78l-4.37-3-3.56,58.59s-2.08-21.24-4.82-31.81S278,91.9,278,91.9,261.3,72.63,245.71,68.19L247.08,67l20.1-11.43h0C277,67.46,290.19,87.5,292.87,99.78Z" class="cls-multipy"></path><path fill="#7a4e85" d="M263.81,78.45a37.55,37.55,0,0,1,13.08-1.69A14.07,14.07,0,0,1,288,83.26,65.18,65.18,0,0,0,266.92,81Z"></path><path fill="#7a4e85" d="M127.31,85s-14-12.88-6.28-28.1a253.39,253.39,0,0,0,8.43,25Z"></path><path fill="#d177b8" opacity="0.6" d="M222.48,68.19h23.23s-20.41,2.29-51.05,3.37-48.24.61-48.24.61S126,82.87,119.52,93.59c0,0,.16,16.21-.32,24.77s-5,37.89-5,37.89,0-.11,0-.31c-.39-3.72-3.9-38.78-5.75-54.25v0c-.28-2.33-.52-4.22-.71-5.48a1.1,1.1,0,0,0,0-.16c-.84-5.82-.65-13.49-.32-18.94,0-.31,0-.61,0-.91s0-.53.06-.77,0-.52,0-.76c0-.57.07-1.11.11-1.58,0-.26,0-.51.07-.72a.53.53,0,0,1,0-.13c0-.23,0-.43,0-.62,0-.43.08-.76.09-1a.86.86,0,0,0,0-.15.88.88,0,0,1,0-.19l.55.15,3.77,6.94.06-.06.06-.07,0,0c1-1,6.38-6.75,10.68-11.1l.23-.23c.45-.45,1-1,1.61-1.56,5-4.75,14.78-13.14,17.6-15.56a.53.53,0,0,1,.12-.1l.66-.57v.06C142.15,60,145.9,67.43,145.9,67.43,168,69.2,222.48,68.19,222.48,68.19Z" class="cls-multipy"></path><path d="M218.4,138.21S244.57,123.89,277,124c0,0-12.7-13.5-38.53-5.36S215.52,125,218.4,138.21Z" class="canChange" style="fill:null"></path><path d="M182,138.2S155.8,123.88,123.33,124c0,0,12.7-13.5,38.53-5.36S184.85,125,182,138.2Z" class="canChange" style="fill:null"></path><path fill="#0b0000" d="M229.37,156.34c11.18-7.34,26.33-7.1,37.74-.43,2.47,1.44,6.37,4.14,3.71,7.34-2.18,2.63-6.22,3.78-9.27,4.75a118.85,118.85,0,0,1-20.35,4.23l-.25,0"></path><path fill="#e4e5f9" d="M267.64,162.81a4.41,4.41,0,0,1-.94,2.89c-5.69,8-42.15,7-43.17,6.2a1.26,1.26,0,0,0-.6-.27,3.55,3.55,0,0,0-2.13.53h0c.28-.21.17-2,.2-2.38a8.84,8.84,0,0,1,.62-2.6c.09-.23.2-.46.3-.71a29.12,29.12,0,0,1,5.39-8.31c7.56-7.82,20.46-6.17,29.81-2.9C260.21,156.36,267.31,158.86,267.64,162.81Z"></path><path fill="#dda6ae" d="M222.93,171.63a3.55,3.55,0,0,0-2.13.53h0c.28-.21.17-2,.2-2.38a8.84,8.84,0,0,1,.62-2.6C222,168.62,222.42,170.26,222.93,171.63Z"></path><g class="cls-path-cs3-male-1R show"><ellipse fill="#6a518a" cx="241.73" cy="157.57" rx="13.61" ry="13.66" transform="translate(-18.79 281.63) rotate(-58.56)"></ellipse><ellipse fill="#76719d" cx="241.73" cy="157.57" rx="12.81" ry="12.86" transform="translate(-18.7 281.82) rotate(-58.6)"></ellipse><ellipse fill="#724a60" cx="241.73" cy="157.57" rx="8.31" ry="8.34" transform="translate(-18.79 281.62) rotate(-58.56)" class="cls-multipy canChange" style="fill:null"></ellipse></g><path fill="#d177b8" opacity="0.6" d="M267.64,162.81c-23.69-13.28-41.46,3.3-46.84,9.35h0c.28-.21.17-2,.2-2.38a9.68,9.68,0,0,1,.92-3.31,29.12,29.12,0,0,1,5.39-8.31c7.56-7.82,20.46-6.17,29.81-2.9C260.21,156.36,267.31,158.86,267.64,162.81Z" class="cls-multipy"></path><path fill="#fff" d="M252.73,163.08c-.89.7,3,1.11,6,.13,2.67-.88,4-2.48,3.8-2.79S256.23,160.31,252.73,163.08Z"></path><path fill="#fff" d="M250.46,163.69c-1.09-.44-2.42.06-2.51.65s1.26,1.4,1.91,1.19S251.07,163.94,250.46,163.69Z"></path><path fill="#0b0000" d="M170.63,157.25c-11.18-7.34-26.33-7.1-37.74-.44-2.47,1.44-6.37,4.15-3.71,7.35,2.18,2.62,6.22,3.78,9.27,4.74a117.91,117.91,0,0,0,20.35,4.23l.25,0"></path><path fill="#e4e5f9" d="M132.36,163.71a4.41,4.41,0,0,0,.94,2.9c5.69,8,42.15,7,43.17,6.2a1.38,1.38,0,0,1,.6-.28,3.55,3.55,0,0,1,2.13.53s0,0,0,0c-.28-.22-.17-2.06-.2-2.39a8.77,8.77,0,0,0-.62-2.59c-.09-.23-.2-.47-.3-.71a29.3,29.3,0,0,0-5.39-8.32c-7.56-7.81-20.46-6.17-29.81-2.9C139.79,157.26,132.69,159.76,132.36,163.71Z"></path><path fill="#dda6ae" d="M177.07,172.53a3.55,3.55,0,0,1,2.13.53s0,0,0,0c-.28-.22-.17-2.06-.2-2.39a8.77,8.77,0,0,0-.62-2.59C178,169.52,177.58,171.16,177.07,172.53Z"></path><g class="cls-path-cs3-male-1L show"><ellipse fill="#6a518a" cx="158.27" cy="158.47" rx="13.66" ry="13.61" transform="translate(-59.42 105.81) rotate(-31.44)"></ellipse><ellipse fill="#76719d" cx="158.27" cy="158.47" rx="12.86" ry="12.81" transform="translate(-59.38 105.66) rotate(-31.4)"></ellipse><ellipse fill="#724a60" cx="158.27" cy="158.47" rx="8.34" ry="8.31" transform="translate(-59.42 105.82) rotate(-31.44)" class="cls-multipy canChange" style="fill:null"></ellipse></g><path fill="#d177b8" opacity="0.6" d="M132.36,163.71c23.69-13.28,41.46,3.3,46.84,9.35,0,0,0,0,0,0-.28-.22-.17-2.06-.2-2.39a9.63,9.63,0,0,0-.92-3.3,29.3,29.3,0,0,0-5.39-8.32c-7.56-7.81-20.46-6.17-29.81-2.9C139.79,157.26,132.69,159.76,132.36,163.71Z" class="cls-multipy"></path><path fill="#fff" d="M147.27,164c.89.7-3,1.11-6,.13-2.67-.87-4-2.48-3.8-2.79S143.77,161.22,147.27,164Z"></path><path fill="#fff" d="M149.54,164.6c1.09-.44,2.42.06,2.51.64s-1.26,1.41-1.91,1.2S148.93,164.85,149.54,164.6Z"></path><path d="M161.6,221.9l2.9,2.7c0,0,8.6,8,34.9,8s37.2-9.1,37.2-9.1l2-1.6l-0.2,2.9h-1.8c0,0-17.7,9.4-37.7,9.4    c-12.2-0.1-24.2-3.1-35-8.8l-1.8,0.3L161.6,221.9z"></path><path fill="#BA7070" d="M164,225.4c0,0,4.6,17.8,36.3,17.8s35.1-17.8,35.1-17.8c-11.2,5.4-23.5,8.2-36,8.2    C177.1,233.6,164,225.4,164,225.4z" class="canChange" style="fill:null"></path><path fill="#852442" d="M164.6,224.6c0,0,6.6,4.8,34.7,4.8s37.4-6,37.4-6s-11,9.1-37.2,9.1S164.6,224.6,164.6,224.6z"></path><path fill="#742637" d="M164.6,224.6c0,0,6.6,4.8,34.7,4.8s37.4-6,37.4-6s-11,9.1-37.2,9.1S164.6,224.6,164.6,224.6z" class="canChange" style="fill:null"></path><path fill="#FFD9D9" d="M203.8,233.6l5.3,8.7c0,0,8.9-0.9,14.7-4.4s7.7-5.4,7.7-5.4l-3.6-3.3C227.9,229.2,220.7,232.4,203.8,233.6z"></path><path opacity="0.4" fill="#B86E51" d="M212.4,241.6c0,0,13.1-6,19.1-9.1C231.5,232.5,227,238.8,212.4,241.6z"></path><path opacity="0.5" fill="#8C2F72" d="M161.6,221.9l-2.2-3.2c0,0-1.6,7.2,3.3,8.4l1.3-1.7L161.6,221.9z"></path><path opacity="0.5" fill="#8C2F72" d="M238.4,221.9l2.2-3.2c0,0,1.6,7.2-3.3,8.4l-1.3-1.7L238.4,221.9z"></path><path fill="#3d3b32" d="M225.93,297.93v0a10.55,10.55,0,0,1-.44,2.64,120.9,120.9,0,0,1-4.33,11.88c0-3.08-.34-5.7-.34-5.7-1.47,4.91-16.2,16.53-21.11,16.53-5.69,0-12-3.74-17.18-7.74l0,0c-3.61-3.9-4.16-10.06-3.95-14.76a38.56,38.56,0,0,1,.83-6.47c-.58-.21-2.49,2.26-3.82,4.1l-1.52-1.24c-.17-11.47,5.71-16.53,8.7-18.36A71.6,71.6,0,0,0,196,280.32c-.38-1.35-1.16-2.7-3.91-3.47a13,13,0,0,1-8.78-7.92c-.76-1.47,4.14-.16,8.85,1.35a26.4,26.4,0,0,0,15.93,0c4.71-1.51,9.62-2.82,8.86-1.35a13,13,0,0,1-8.79,7.92c-2.74.78-3.53,2.13-3.91,3.48A69,69,0,0,0,221.48,278C222.81,281.47,226.31,291.4,225.93,297.93Z" class="canChange" style="fill:null"></path><path fill="#1a1426" d="M225.93,297.93v0a10.55,10.55,0,0,1-.44,2.64,120.9,120.9,0,0,1-4.33,11.88c0-3.08-.34-5.7-.34-5.7-1.47,4.91-16.2,16.53-21.11,16.53-5.69,0-12-3.74-17.18-7.74l0,0c-3.61-3.9-4.16-10.06-3.95-14.76a38.56,38.56,0,0,1,.83-6.47c-.58-.21-2.49,2.26-3.82,4.1l-1.52-1.24c-.17-11.47,5.71-16.53,8.7-18.36A71.6,71.6,0,0,0,196,280.32c-.38-1.35-1.16-2.7-3.91-3.47a13,13,0,0,1-8.78-7.92c-.76-1.47,4.14-.16,8.85,1.35a26.4,26.4,0,0,0,15.93,0c4.71-1.51,9.62-2.82,8.86-1.35a13,13,0,0,1-8.79,7.92c-2.74.78-3.53,2.13-3.91,3.48A69,69,0,0,0,221.48,278C222.81,281.47,226.31,291.4,225.93,297.93Z" class="canChange" style="fill:null"></path><path fill="#ffd9bb" opacity="0.75" d="M225.93,297.93a45,45,0,0,0-1.06-4.66c-1.26,3.59-18,19.53-26.87,19.53-3.42,0-12.51-6.58-19.44-12a38.56,38.56,0,0,1,.83-6.47c-.58-.21-2.49,2.26-3.82,4.1l-1.52-1.24c-.17-11.47,5.71-16.53,8.7-18.36A71.6,71.6,0,0,0,196,280.32c-.38-1.35-1.16-2.7-3.91-3.47a13,13,0,0,1-8.78-7.92c-.76-1.47,4.14-.16,8.85,1.35a26.4,26.4,0,0,0,15.93,0c4.71-1.51,9.62-2.82,8.86-1.35a13,13,0,0,1-8.79,7.92c-2.74.78-3.53,2.13-3.91,3.48A69,69,0,0,0,221.48,278C222.81,281.47,226.31,291.4,225.93,297.93Z" class="cls-softlight"></path><path fill="#ffeadb" opacity="0.6" d="M260,309h0l-1.2.32-1.93.5-23.82,6.26-40.73,10.69h0l-.46.12-1.31.35h0l-2.74.72-5.69,1.49L153,337.13l-1.59-7.41-1.29-6-2.34-11-4.89-22.85s1.19,1.11,3.4,2.84h0c.58.46,1.23.95,1.95,1.48a103.31,103.31,0,0,0,17.18,10.29c20.47,9.68,52.57,16.39,86.47-9.33l.46-.35.19-.15h0c.48-.36,1-.74,1.43-1.12,1.14-.9,2.27-1.84,3.41-2.82h0l.35-.29Z" class="cls-multipy"></path><path fill="#71ccaa" d="M393.17,400H6.83s4.51-20,5.25-24.64c.12-.74,3.3-2.47,8.58-4.88,17.47-8,58-23.29,86.69-34.17l2.34-.88,1.17-.42a14.35,14.35,0,0,0,1.58-.63,1,1,0,0,0,.45-.41,3.59,3.59,0,0,1,.6-1.16c.55-.68,2,.41,2.81.11,13-4.94,22-8.41,22.65-8.92a7.25,7.25,0,0,0,.83-2.86c.46-2.67,1-7,1.43-12.15a.78.78,0,0,0,0-.21l-3.14-2.91a1.85,1.85,0,0,1,0-.23s2.27-20.43,2.28-20.43c.47,0,1.39.14,2.56.31-.68,0,.68,4,.8,4.27,3.54,9.75,15.7,16.32,24.74,20a74,74,0,0,0,12.71,3.88c.86.18,1.74.36,2.64.52A97.48,97.48,0,0,0,200,315.7c16.82-.18,28.91-4.12,37.2-8.53h0c8.82-4.7,13.36-9.94,14.79-11.8l5.33-6.29c.13-.12.84-.08,1-.09a3,3,0,0,1,.84,0c-.08,0,.09,2.43.1,2.65.11,1.62.21,3.26.21,4.88l.36,8.57c.05,1.32.16,2.64.15,4l-1.16.71c.48,5.25,1,9.57,1.47,12a5.24,5.24,0,0,0,.71,2.23c.66.54,10.88,4.44,25.26,9.91h0c36.87,14,101,38.07,101.58,41.44.38,2.34,1.69,8.48,2.91,14.07S393.17,400,393.17,400Z" class="canChange" style="fill:null"></path><path fill="#d177b8" opacity="0.36" d="M200.4,327s-2.55.17-6.82.25l-3,0c-3,0-6.51,0-10.41-.18a190.45,190.45,0,0,1-30.09-3.39c-3.48-.7-6.94-1.55-10.29-2.55.46-2.67.95-7,1.43-12.15,2,1.22,4.18,2.48,6.52,3.74a125.25,125.25,0,0,0,30.51,11.86,93.74,93.74,0,0,0,12.14,2l2,.17C195,327,197.69,327.05,200.4,327Z" class="cls-multipy"></path><path fill="#d177b8" opacity="0.36" d="M260.34,321.77c-3.78,1.12-7.7,2-11.63,2.79a191.17,191.17,0,0,1-25,2.91,224.06,224.06,0,0,1-23.69,0A89.69,89.69,0,0,0,226.59,324a131.69,131.69,0,0,0,30-12.94l2.23-1.32C259.35,315,259.86,319.3,260.34,321.77Z" class="cls-multipy"></path><path fill="#d077b7" opacity="0.32" d="M393.17,400H368.41c11.63-3.28,18.81-6.83,22.42-10.57C392.05,395,393.17,400,393.17,400Z" class="cls-multipy"></path><path fill="#d177b8" opacity="0.36" d="M112.9,334s17.63,17.56,32.39,21.95c-8.77-2.12-30-8.45-34.43-20.92a14.35,14.35,0,0,0,1.58-.63,1,1,0,0,0,.45-.41Z" class="cls-multipy"></path><path fill="#ff918a" d="M149.1,356.77a24,24,0,0,1-3.81-.84C147.64,356.5,149.1,356.77,149.1,356.77Z"></path><path fill="#d177b8" opacity="0.36" d="M193.58,327.23S45.88,363.83,42,387.75A68,68,0,0,0,41.12,400H6.83s4.51-20,5.25-24.64c.12-.74,3.3-2.47,8.58-4.88,17.47-8,58-23.29,86.69-34.17l2.34-.88,1.17-.42a14.35,14.35,0,0,0,1.58-.63,1,1,0,0,0,.45-.41,3.59,3.59,0,0,1,.6-1.16c.55-.68,2,.41,2.81.11,13-4.94,22-8.41,22.65-8.92a7.25,7.25,0,0,0,.83-2.86c.46-2.67,1-7,1.43-12.15a.78.78,0,0,0,0-.21l-3.14-2.91a1.85,1.85,0,0,1,0-.23s2.27-20.43,2.28-20.43c.47,0,1.39.14,2.56.31-.68,0,.68,4,.8,4.27,3.54,9.75,15.7,16.32,24.74,20a74,74,0,0,0,12.71,3.88C178.84,317.36,179.26,322.58,193.58,327.23Z" class="cls-multipy"></path><path fill="#d177b8" opacity="0.36" d="M393.17,400h-43.3c-1-4.2-2.11-9.06-3.11-14.47-3.6-19.55-103-63-103-63,6.37-10.94-1-14.29-6.54-15.31,8.82-4.7,13.36-9.94,14.79-11.8l5.33-6.29c.13-.12.84-.08,1-.09a3,3,0,0,1,.84,0c-.08,0,.09,2.43.1,2.65.11,1.62.21,3.26.21,4.88l.36,8.57c.05,1.32.16,2.64.15,4l-1.16.71c.48,5.25,1,9.57,1.47,12a5.24,5.24,0,0,0,.71,2.23c.66.54,10.88,4.44,25.26,9.91h0c36.87,14,101,38.07,101.58,41.44.38,2.34,1.69,8.48,2.91,14.07S393.17,400,393.17,400Z" class="cls-multipy"></path><path fill="#d177b8" opacity="0.6" d="M220.2,197.05s-.08,2.65-1.09,3.17-2.72-2.16-4.69-1-3.87,10.6-14.42,10.6-13-9.32-14.94-10.49-3.17,1.38-4.17.87-1.09-3.17-1.09-3.17l0,3.52s1.81-1.75,7.74,6.49c9.87,13.72,18.63,8.66,25,0,6-8.16,7.74-6.49,7.74-6.49Z" class="canChange cls-multipy" style="fill:null"></path><path fill="#dd93f4" opacity="0.6" d="M215.84,188.7s-.83-1.4-1.83-.79-1.64,12.22-1.64,12.22-1.46-12.47,0-15.69A12.1,12.1,0,0,1,215.84,188.7Z" class="canChange cls-multipy" style="fill:null"></path><path fill="#dd93f4" opacity="0.6" d="M184,188.7s.83-1.4,1.84-.79,1.63,12.22,1.63,12.22,1.46-12.47,0-15.69A12.22,12.22,0,0,0,184,188.7Z" class="canChange cls-multipy" style="fill:null"></path><path fill="#401a35" opacity="0.6" d="M210.73,204.93s3.24-3.74,4.51-4.36,3.76.5,3.76.5a11.56,11.56,0,0,0-2.77,1.48C214.9,203.55,212.26,205.08,210.73,204.93Z" class="cls-multipy"></path><path fill="#401a35" opacity="0.6" d="M181.83,201.5s1.19-1.9,3-1.44,4.19,4.88,4.19,4.88-2.57-1-4-1.69S181.83,201.5,181.83,201.5Z" class="cls-multipy"></path></svg>