<svg transform="scale(4)" id="fMsIWnSZdj" xmlns="http://www.w3.org/2000/svg" viewBox="0 0 500 500" class="pbimage_pbimage__wrapper__image__0LEis "><title>Page Not Found 2</title><g id="monitor"><path d="M250,346.31l-61.57,23.92s-8.64-.81-15.94-8.11c-6.45-6.45-1.8-20.82,10.67-41.7l3.7-.91,52.17-12.86c-8.04,15.43-10.31,26.22-4.97,31.56,7.29,7.29,15.94,8.1,15.94,8.1Z" fill="#fff" stroke-width="0"></path><path d="M188.43,370.73s-.03,0-.05,0c-.36-.03-8.9-.91-16.25-8.25-6.27-6.27-2.9-19.71,10.59-42.31.07-.11.18-.2.31-.23l55.87-13.77c.19-.05.39.02.51.18.12.15.14.37.05.54-8.31,15.94-9.96,26.07-5.06,30.97,7.07,7.07,15.55,7.95,15.63,7.96.23.02.42.2.45.43s-.1.45-.31.53l-61.57,23.92c-.06.02-.12.03-.18.03ZM183.48,320.85c-13.13,22.03-16.51,35.04-10.64,40.91,6.63,6.63,14.49,7.82,15.52,7.95l59.76-23.22c-2.97-.64-9.02-2.54-14.42-7.94-5.15-5.14-3.72-15.34,4.37-31.16l-54.6,13.46Z" fill="#732a09" stroke-width="0"></path><path d="M250,346.31v9.68l-61.57,24.99s-21.19-3.63-25.96-19.76c-4.78-16.14,10.32-38.24,10.32-38.24l10.37-2.56c-12.47,20.88-17.12,35.25-10.67,41.7,7.3,7.3,15.94,8.11,15.94,8.11l61.57-23.92Z" fill="#732a09" stroke-width="0"></path><path d="M188.43,381.48s-.06,0-.08,0c-.22-.04-21.55-3.87-26.36-20.11-2.51-8.48.46-18.55,3.39-25.51,3.16-7.5,6.96-13.1,7-13.16.07-.1.17-.17.29-.2l10.37-2.56c.2-.05.4.03.52.19.12.16.13.38.03.55-13.22,22.14-16.64,35.2-10.75,41.09,6.63,6.63,14.49,7.82,15.52,7.95l61.45-23.88c.15-.06.33-.04.46.05.14.09.22.25.22.41v9.68c0,.2-.12.39-.31.46l-61.57,24.99c-.06.02-.12.04-.19.04ZM173.1,323.42c-1.33,2.01-14.6,22.64-10.15,37.66,4.43,14.97,23.61,19.03,25.43,19.38l61.12-24.81v-8.61l-60.89,23.66c-.07.03-.15.04-.23.03-.36-.03-8.9-.91-16.25-8.25-6.17-6.17-3-19.3,9.98-41.28l-9.02,2.23Z" fill="#732a09" stroke-width="0"></path><path d="M77.74,351.2c-.51-.07-.98-.22-1.41-.44l1.41.44Z" fill="#f75454" stroke-width="0"></path><path d="M77.74,351.7s-.04,0-.07,0c-.55-.08-1.08-.24-1.57-.49-.23-.12-.33-.39-.24-.63.1-.24.36-.36.61-.29l1.41.44c.25.08.4.33.34.59-.05.23-.26.39-.49.39Z" fill="#732a09" stroke-width="0"></path><path d="M311.03,125.77l-6.07,6.1v157.55c0,3.44-2.78,6.9-6.21,7.75l-209.77,51.71-4.44,4.46-6.8-2.14-1.41-.44c-1.51-.76-2.49-2.33-2.49-4.36v-162.09c0-3.43,2.78-6.9,6.21-7.74l218.7-53.91c2.97-.66,12.28,3.11,12.28,3.11Z" fill="#732a09" stroke-width="0"></path><path d="M84.54,353.84s-.1,0-.15-.02l-8.21-2.58c-1.81-.9-2.84-2.7-2.84-4.84v-162.09c0-3.65,2.96-7.33,6.59-8.22l218.7-53.91c3.11-.68,12.2,2.98,12.59,3.13.16.06.27.2.3.36.03.16-.02.33-.14.45l-5.92,5.95v157.34c0,3.64-2.96,7.33-6.59,8.24l-209.63,51.68-4.34,4.36c-.1.1-.22.15-.35.15ZM299.58,123.08c-.28,0-.52.02-.72.07l-218.69,53.91c-3.21.79-5.83,4.04-5.83,7.25v162.09c0,1.78.81,3.2,2.21,3.91l1.33.41,6.51,2.05,4.23-4.24c.06-.07.15-.11.23-.13l209.77-51.71c3.21-.8,5.83-4.06,5.83-7.26v-157.55c0-.13.05-.26.15-.35l5.53-5.56c-2.68-1.04-7.99-2.87-10.56-2.87Z" fill="#732a09" stroke-width="0"></path><path d="M307.35,125.47l-218.7,53.91c-3.43.85-6.21,4.31-6.21,7.74v162.09c0,3.43,2.78,5.53,6.21,4.68l218.7-53.91c3.43-.85,6.21-4.31,6.21-7.74v-162.09c0-3.43-2.78-5.53-6.21-4.68Z" fill="#fff" stroke-width="0"></path><path d="M87.14,354.58c-1.23,0-2.35-.37-3.26-1.08-1.25-.98-1.95-2.51-1.95-4.29v-162.09c0-3.64,2.96-7.33,6.59-8.23l218.7-53.91.12.49-.12-.49c1.85-.46,3.58-.14,4.89.88,1.25.98,1.95,2.51,1.95,4.29v162.09c0,3.64-2.96,7.33-6.59,8.23l-218.7,53.91c-.55.14-1.1.2-1.62.2ZM308.85,125.78c-.44,0-.91.06-1.38.17l-218.7,53.91c-3.22.79-5.83,4.05-5.83,7.26v162.09c0,1.47.55,2.71,1.56,3.5,1.06.83,2.49,1.07,4.03.69l218.7-53.91c3.22-.79,5.83-4.05,5.83-7.26v-162.09c0-1.47-.55-2.71-1.56-3.5-.73-.57-1.65-.87-2.65-.87Z" fill="#732a09" stroke-width="0"></path><polygon points="304.96 134.28 91.04 187.02 91.04 345.08 304.96 292.34 304.96 134.28" fill="#732a09" stroke-width="0"></polygon><path d="M91.04,345.58c-.11,0-.22-.04-.31-.11-.12-.09-.19-.24-.19-.39v-158.06c0-.23.16-.43.38-.49l213.93-52.74c.15-.04.31,0,.43.09.12.09.19.24.19.39v158.06c0,.23-.16.43-.38.49l-213.93,52.73s-.08.01-.12.01ZM91.54,187.41v157.03l212.93-52.49v-157.03l-212.93,52.49Z" fill="#732a09" stroke-width="0"></path><path d="M171.92,272.94v-7.99l-15.3,3.77v-7.23l11.08-41.17,8.14-2.01-11.53,41.28,7.61-1.88v-15.3l7.69-1.9v15.3l3.69-.91v7.23l-3.69.91v7.99l-7.69,1.9Z" fill="#fff" stroke-width="0"></path><path d="M186.54,226.75c0-1.81.31-3.49.94-5.06.63-1.56,1.47-2.97,2.53-4.24,1.06-1.26,2.27-2.33,3.66-3.2,1.38-.87,2.83-1.49,4.33-1.86,1.51-.37,2.95-.46,4.33-.28,1.38.19,2.6.65,3.65,1.4,1.06.75,1.9,1.74,2.53,2.99.63,1.25.94,2.78.94,4.59v31.5c0,1.81-.31,3.49-.94,5.05-.63,1.56-1.47,2.98-2.53,4.24-1.06,1.27-2.27,2.33-3.65,3.2-1.38.87-2.83,1.49-4.33,1.86-1.51.37-2.95.46-4.33.28-1.38-.19-2.6-.65-3.66-1.4-1.06-.74-1.9-1.74-2.53-3-.63-1.25-.94-2.78-.94-4.59v-31.5ZM194.23,256.36c0,1.1.35,1.94,1.06,2.49.7.55,1.61.7,2.71.42,1.1-.27,2.01-.86,2.71-1.76s1.06-1.91,1.06-3.01v-31.5c0-1.1-.35-1.94-1.06-2.49s-1.61-.7-2.71-.42-2.01.86-2.71,1.76c-.7.9-1.06,1.91-1.06,3.01v31.5Z" fill="#fff" stroke-width="0"></path><path d="M227.99,259.12v-7.99l-15.3,3.77v-7.23l11.08-41.17,8.14-2.01-11.53,41.28,7.61-1.88v-15.3l7.69-1.9v15.3l3.69-.91v7.23l-3.69.91v7.99l-7.69,1.9Z" fill="#fff" stroke-width="0"></path></g><g id="character"><path d="M324.12,256.05c7.23-5.17,27.64-12.04,45.49-14.2,17.84-2.16,31.93.09,32.64,3.61.71,3.52-.62,4.33-.62,4.33l-7.49,9.93-18.23,5.59-48.27-1.98-3.51-7.27Z" fill="#f75454" stroke-width="0"></path><path d="M375.9,265.81h-.02l-48.27-1.98c-.18,0-.35-.12-.43-.28l-3.51-7.27c-.11-.22-.04-.48.16-.62,7.11-5.09,27.17-12.04,45.71-14.29,17.14-2.07,32.33-.24,33.19,4.01.67,3.35-.4,4.5-.75,4.78l-7.44,9.87c-.06.08-.15.15-.25.18l-18.23,5.59s-.1.02-.15.02ZM327.95,262.83l47.88,1.97,17.99-5.52,7.39-9.79c.04-.05.09-.09.14-.13h0s1-.76.39-3.8c-.57-2.83-13.36-5.48-32.09-3.22-17.82,2.16-37.73,8.97-44.91,13.87l3.2,6.62Z" fill="#732a09" stroke-width="0"></path><path d="M372.58,258.73c8.44-.85,20.7-4.4,22.39-8.19,1.69-3.79-25.86-6.01-38.55-3.66-12.69,2.35-29.9,10.4-18.79,10.21s34.94,1.64,34.94,1.64Z" fill="#732a09" stroke-width="0"></path><path d="M372.58,259.23s-.03,0-.04,0c-.24-.02-23.92-1.83-34.89-1.64-1.83.05-3.95-.09-4.08-1.37-.29-2.94,13.98-8.21,22.76-9.84,11.27-2.09,36.01-.7,38.89,2.95.34.44.42.93.21,1.4-1.86,4.18-14.66,7.67-22.8,8.48-.02,0-.03,0-.05,0ZM339.37,256.58c11.33,0,32.1,1.57,33.2,1.65,8.93-.9,20.45-4.54,21.94-7.89.04-.09.07-.19-.08-.38-2.22-2.81-25.63-4.86-37.92-2.59-10.93,2.02-22.09,7.34-21.95,8.75,0,0,.22.52,3.07.46.55,0,1.13-.01,1.74-.01Z" fill="#732a09" stroke-width="0"></path><path d="M340.05,257.05c-15.79-.78-33.53-.96-43.05-12.35-9.52-11.39-10.46-36.49-8.78-39.06,1.68-2.58,42.75-25.36,42.75-25.36l17.95-25.8s-29.89-3.14-62.75,9.74c-32.86,12.88-38.84,25.74-38.28,42.56.56,16.82,5.35,51.55,12.66,68.54,7.32,16.99,8.57,20.54,8.57,20.54l-28.47,106.79s108.41,16.73,153.48,12.89l14.76-113.74s48.55-32.48,53.35-59.95-17.52-70.81-65.42-79.09l-.47,28.14s24.76,27.53,27.56,35.29c2.8,7.76-28.76,33.76-51.32,32.54l-32.53-1.68Z" fill="#f75454" stroke-width="0"></path><path d="M369.6,241.85c-.27,8.16-.29,14.76,0,15.87.29,1.12,2.98,1.01,2.98,1.01,0,0-9.61,15.09-22.69,15.43s-15.76-7.49-9.84-17.1l2.55-.45,1.14-7.38,25.87-7.38Z" fill="#fff" stroke-width="0"></path><path d="M349.09,274.67c-5.74,0-9.71-1.63-11.5-4.75-1.89-3.28-1.16-7.94,2.03-13.13.08-.12.2-.21.34-.23l2.19-.39,1.09-7.02c.03-.19.17-.35.36-.4l25.87-7.38c.15-.05.32-.01.44.09s.2.25.19.41c-.27,8.4-.28,14.72-.02,15.73.12.47,1.54.68,2.47.63.18,0,.36.09.45.25.09.16.09.36-.01.52-.1.16-2.48,3.87-6.52,7.68-3.75,3.54-9.67,7.8-16.58,7.98-.27,0-.54.01-.81.01ZM340.36,257.51c-2.9,4.78-3.57,9.01-1.9,11.92,1.68,2.92,5.6,4.39,11.42,4.23,11-.28,19.63-11.43,21.77-14.45-.96-.08-2.27-.37-2.53-1.36-.34-1.31-.25-8.65-.04-15.33l-24.9,7.1-1.09,7.06c-.03.21-.2.38-.41.42l-2.32.41Z" fill="#732a09" stroke-width="0"></path><path d="M326.59,190.25c-1.45-8.65-1.98-15.87-1.22-17.99s21.04-22.78,39.53-20.64c18.49,2.14,31.9,8.46,37.69,17.31,0,0,18.67,7.63,12.46,35.57-6.2,27.94-16.97,40.84-22.72,42.15-5.75,1.31-31-3.59-31-3.59l-34.75-52.82Z" fill="#fff" stroke-width="0"></path><path d="M389.55,247.38c-8.53,0-27.4-3.64-28.31-3.82-.13-.03-.25-.1-.32-.22l-34.75-52.82c-.04-.06-.06-.12-.08-.19-1.19-7.1-2.13-15.63-1.2-18.24.74-2.07,21.21-23.14,40.06-20.97,18.46,2.14,31.94,8.32,37.97,17.41,1.77.82,18.54,9.38,12.61,36.08-6.39,28.8-17.32,41.21-23.1,42.53-.71.16-1.7.23-2.89.23ZM361.63,242.62c2.42.46,25.28,4.76,30.58,3.55,5.33-1.22,16.1-13.63,22.35-41.78,6.03-27.18-11.98-34.93-12.17-35-.09-.04-.17-.1-.23-.19-5.74-8.78-19.35-15.01-37.33-17.09-18.37-2.13-38.29,18.3-39,20.31-.7,1.97-.21,9.05,1.22,17.64l34.57,52.56Z" fill="#732a09" stroke-width="0"></path><path d="M336.37,175.91s-28.68,34.29-20.1,55.71c7.47,18.65,37.41,28.27,63.08,6.17,0,0,5.11,5.04,11.45,3.99s11.69-18.03,2.26-19.48l-9.59,9.13-4.32-4.16s7.42-13.41,8.24-20.49c0,0-6.15-15.36-21.42-23.53l10.51-11.23-18.88,7.95-9.01-2.64,7.92-11-14.7,10.39-5.44-.81Z" fill="#fff" stroke-width="0"></path><path d="M347.6,251.04c-3.17,0-6.32-.37-9.4-1.12-10.51-2.57-18.88-9.34-22.39-18.11-2.49-6.21-3.32-17.55,6.85-36.32,6.05-11.17,13.25-19.82,13.32-19.9.11-.13.28-.2.46-.17l5.24.78,14.54-10.27c.2-.14.47-.12.64.06.17.17.19.45.05.64l-7.51,10.42,8.16,2.39,18.72-7.88c.22-.09.47-.02.6.17s.12.46-.04.63l-10.07,10.76c14.84,8.24,21.02,23.33,21.08,23.48.03.08.04.16.03.24-.76,6.56-6.94,18.17-8.12,20.34l3.7,3.56,9.25-8.8c.11-.11.27-.16.42-.13,3.5.54,5.51,3.21,5.54,7.34.03,5.36-3.44,12.41-7.79,13.12-5.65.93-10.28-2.7-11.55-3.82-9.69,8.22-20.86,12.58-31.74,12.58ZM336.58,176.45c-2.39,2.94-27.86,34.96-19.84,54.99,3.4,8.48,11.51,15.02,21.7,17.51,13.46,3.29,28.25-.92,40.59-11.54.2-.17.49-.16.68.02.05.05,5.01,4.84,11.02,3.86,3.47-.57,6.98-6.69,6.95-12.13-.01-2.07-.61-5.6-4.45-6.32l-9.41,8.96c-.2.18-.5.18-.69,0l-4.32-4.16c-.16-.16-.2-.4-.09-.6.07-.13,7.29-13.24,8.17-20.18-.6-1.42-6.91-15.55-21.15-23.17-.14-.07-.23-.21-.26-.36s.02-.31.13-.42l8.91-9.52-16.72,7.04c-.11.04-.22.05-.33.02l-9.01-2.64c-.16-.04-.28-.16-.33-.32s-.03-.32.07-.45l6.17-8.57-12.26,8.66c-.1.08-.23.11-.36.09l-5.16-.76Z" fill="#732a09" stroke-width="0"></path><path d="M357.33,201.03c4.98-1.61,12.93-.29,12.78,6.27,0,.28-.22.5-.49.51-.26,0-.46-.18-.5-.42-.98-5.38-7.18-5.68-11.61-5.38-.58.05-.73-.83-.17-.98h0Z" fill="#732a09" stroke-width="0"></path><path d="M332,184.46c4.24-1.31,9.06,1.11,10.56,5.26.2.57.36,1.14.51,1.72.07.27-.09.54-.36.61-.22.06-.44-.04-.55-.22-.31-.49-.53-1.02-.83-1.5-1.77-3.3-5.41-5.15-9.12-4.88-.61.09-.81-.81-.22-.98h0Z" fill="#732a09" stroke-width="0"></path><path d="M333.61,211.71c-.72,0-1.43-.12-2.07-.37-1.78-.67-3.38-2.41-2.55-5.3.35-1.21,1.05-2.07,2.08-2.54,2.06-.94,4.87-.02,5.94.41.72-1.38,3.16-6.21,5.12-12.47.08-.26.36-.41.63-.33.26.08.41.36.33.63-2.35,7.5-5.39,13-5.42,13.05-.13.23-.41.32-.65.21-.03-.02-3.41-1.56-5.54-.59-.76.35-1.26.97-1.53,1.9-.54,1.9.18,3.42,1.95,4.09,1.98.75,4.77.16,5.82-2.08.12-.25.42-.36.67-.24.25.12.36.42.24.67-.95,2.02-3.02,2.95-5,2.95Z" fill="#732a09" stroke-width="0"></path><path d="M361.46,211.06c-1.25,1.97-3.36,2.85-4.71,1.99s-1.46-3.15-.21-5.11c.37-.58.84-1.09,1.34-1.46l1.54,2.74.72-3.58c.41,0,.78.1,1.11.32,1.35.86,1.46,3.15.22,5.1Z" fill="#732a09" stroke-width="0"></path><path d="M333.44,196.32c-1.25,1.97-3.36,2.85-4.71,1.99s-1.46-3.15-.21-5.11c.37-.58.84-1.09,1.34-1.46l1.54,2.74.72-3.58c.41,0,.78.1,1.11.32,1.35.86,1.46,3.15.22,5.1Z" fill="#732a09" stroke-width="0"></path><path d="M343.19,224.49c-.24,0-.45-.17-.49-.42-.19-1.1-.77-1.86-1.69-2.22-1.74-.68-4.34.13-6.97,2.17-.22.17-.53.13-.7-.09-.17-.22-.13-.53.09-.7,2.91-2.25,5.88-3.11,7.94-2.31,1.25.49,2.07,1.55,2.31,2.99.05.27-.14.53-.41.58-.03,0-.06,0-.08,0Z" fill="#732a09" stroke-width="0"></path><path d="M391.78,237.2c-.11,0-.22-.03-.31-.11-.22-.17-.26-.48-.09-.7,1.65-2.12,3.67-6.38.81-8.96-.21-.18-.22-.5-.04-.71.18-.2.5-.22.71-.04,3.4,3.06,1.16,7.92-.7,10.31-.1.13-.25.19-.39.19Z" fill="#732a09" stroke-width="0"></path><path d="M336.37,175.91c-3.93-.37-5.28.07-5.28.07" fill="#fff" stroke-width="0"></path><path d="M331.09,176.47c-.21,0-.41-.14-.48-.35-.08-.26.06-.54.32-.62.06-.02,1.49-.46,5.48-.09.27.03.48.27.45.54-.03.27-.27.47-.54.45-3.72-.35-5.08.04-5.09.05-.05.01-.1.02-.15.02Z" fill="#732a09" stroke-width="0"></path><path d="M387.39,206.78c2.89,4.73,4.44,10.54,4.44,10.54" fill="#fff" stroke-width="0"></path><path d="M391.84,217.82c-.22,0-.42-.15-.48-.37-.01-.06-1.57-5.79-4.39-10.41-.14-.24-.07-.54.17-.69.23-.14.54-.07.69.17,2.9,4.74,4.44,10.43,4.5,10.67.07.27-.09.54-.35.61-.04.01-.09.02-.13.02Z" fill="#732a09" stroke-width="0"></path><path d="M320.99,265.81c-.24,0-.46-.18-.49-.43-.04-.29-.98-7.07,3.36-9.76.23-.14.54-.07.69.16.14.23.07.54-.16.69-3.78,2.34-2.9,8.7-2.89,8.76.04.27-.15.53-.42.57-.02,0-.05,0-.07,0Z" fill="#732a09" stroke-width="0"></path><path d="M334.12,276.56c-.11,0-.22-.03-.31-.11-3.22-2.5-6.79-13.05-4.38-17.54.13-.24.43-.33.68-.2.24.13.33.43.2.68-2.13,3.96,1.27,14.07,4.11,16.28.22.17.26.48.09.7-.1.13-.25.19-.39.19Z" fill="#732a09" stroke-width="0"></path><path d="M373.67,270.56c-.16,0-.31-.07-.41-.21-.16-.22-.11-.54.12-.7.18-.13,18.09-12.89,24.47-18.33.21-.18.52-.15.71.06.18.21.15.53-.06.71-6.42,5.47-24.36,18.25-24.54,18.38-.09.06-.19.09-.29.09Z" fill="#732a09" stroke-width="0"></path><path d="M347.34,281.6c-.31,0-.61-.01-.91-.04-.28-.02-.48-.26-.46-.54.02-.28.29-.49.54-.46,9.18.72,20.55-10.43,28.07-17.8,2.04-2,3.81-3.73,5.21-4.91.21-.18.53-.15.7.06.18.21.15.53-.06.7-1.37,1.16-3.12,2.88-5.15,4.87-7.41,7.26-18.48,18.12-27.93,18.12Z" fill="#732a09" stroke-width="0"></path><path d="M363.85,285.8c-.54.67-.4,1.62.26,2.17,5.28,4.38,5.94,15.41,5.64,23.2-.14,3.6.25,5.96.75,7.48.42,1.31,2.18,1.52,2.93.37h0c.32-.49.33-1.1.09-1.63-.44-.96-.91-3.38-.53-9.47.6-9.55-.21-17.55-6.99-22.5-.65-.48-1.57-.36-2.08.27l-.09.1Z" fill="#f75454" stroke-width="0"></path><path d="M372.06,320.27c-.1,0-.19,0-.29-.02-.82-.11-1.49-.67-1.74-1.45-.63-1.95-.89-4.53-.77-7.66.25-6.61-.12-18.37-5.46-22.8-.89-.74-1.04-2-.33-2.87l.08-.1c.68-.84,1.89-.99,2.76-.36,7.25,5.3,7.74,14.15,7.19,22.94-.39,6.24.14,8.46.49,9.24.32.7.27,1.49-.13,2.11-.4.62-1.07.98-1.8.98ZM365.12,285.63c-.3,0-.59.13-.79.38l-.08.1h0c-.36.44-.27,1.08.19,1.47,5.39,4.47,6.14,15.31,5.82,23.61-.12,3.01.13,5.47.72,7.31.14.42.48.71.92.77.45.05.87-.13,1.12-.51.21-.33.23-.76.06-1.15-.68-1.5-.88-4.86-.58-9.71.62-9.82-.3-17.33-6.78-22.07-.18-.13-.39-.2-.6-.2ZM363.85,285.8h0,0Z" fill="#732a09" stroke-width="0"></path><path d="M323.9,279.8c.38.77.02,1.67-.74,2.05-6.13,3.08-9.25,13.68-10.72,21.34-.67,3.54-1.59,5.75-2.41,7.12-.71,1.18-2.47.99-2.94-.3h0c-.2-.55-.08-1.14.28-1.61.64-.84,1.65-3.09,2.65-9.11,1.56-9.44,4.15-17.06,11.87-20.35.74-.32,1.61,0,1.96.73l.06.12Z" fill="#f75454" stroke-width="0"></path><path d="M308.64,311.6c-.07,0-.14,0-.21,0-.83-.08-1.53-.62-1.82-1.4-.25-.69-.12-1.47.35-2.08.51-.67,1.53-2.72,2.55-8.89,1.44-8.68,3.91-17.2,12.17-20.73.99-.42,2.13,0,2.61.97l.06.12s0,0,0,0c.49,1,.07,2.2-.97,2.72-6.2,3.12-9.21,14.49-10.45,20.99-.59,3.07-1.42,5.53-2.47,7.29-.39.65-1.07,1.03-1.81,1.03ZM322.47,279.32c-.13,0-.27.03-.4.08-7.38,3.15-9.96,10.27-11.57,19.98-.79,4.8-1.74,8.03-2.74,9.33-.26.34-.34.76-.2,1.13.16.43.52.71.97.75.45.05.84-.16,1.07-.54.99-1.66,1.78-4,2.35-6.96,1.56-8.16,4.73-18.55,10.98-21.69.54-.27.77-.88.52-1.39l-.06-.12c-.18-.36-.54-.58-.92-.58Z" fill="#732a09" stroke-width="0"></path><path d="M408.89,302.3c-.18,0-.36-.1-.45-.27-8.44-16.56-10.75-35.34-10.77-35.53-.03-.27.16-.52.44-.55.26-.04.52.16.55.44.02.19,2.31,18.8,10.67,35.19.13.25.03.55-.22.67-.07.04-.15.05-.23.05Z" fill="#732a09" stroke-width="0"></path><path d="M269.13,296.36c-.05,0-.1,0-.16-.03-.26-.09-.41-.37-.32-.63,7.49-22.73,20.86-37.88,21-38.03.18-.21.5-.22.71-.04.21.18.22.5.04.71-.13.15-13.37,15.15-20.79,37.68-.07.21-.26.34-.47.34Z" fill="#732a09" stroke-width="0"></path><path d="M373.69,395.31c-.11,0-.21-.03-.3-.1-6.99-5.34-6.66-15.47-6.39-23.61.21-6.34.39-11.81-2.68-13.41-3-1.57-9.79-1.87-19.19-2.28-11.83-.52-28.03-1.23-46.38-4.95-4.55-.93-8.99,1.68-10.34,6.06-3.02,9.79-8.78,22.23-19.11,25.91-.26.09-.55-.04-.64-.3-.09-.26.04-.55.3-.64,10.46-3.72,16.08-17.42,18.49-25.26,1.5-4.87,6.44-7.77,11.5-6.75,18.28,3.71,34.43,4.41,46.22,4.93,9.53.42,16.41.72,19.61,2.39,3.62,1.9,3.43,7.66,3.21,14.33-.27,8.32-.58,17.75,6,22.78.22.17.26.48.09.7-.1.13-.25.2-.4.2Z" fill="#732a09" stroke-width="0"></path></g><g id="warning"><path d="M90.32,159.98l27.31,31.46c2.94,3.39,0,9.82-5.05,11.07l-53.38,13.16c-4.99,1.23-7.94-3.63-5.13-8.45l26.07-44.62c2.43-4.16,7.67-5.51,10.18-2.62Z" fill="#f75454" stroke-width="0"></path><path d="M57.69,216.36c-1.69,0-3.17-.69-4.14-1.98-1.47-1.96-1.44-4.8.09-7.41l26.07-44.62c1.44-2.46,3.92-4.14,6.47-4.38,1.83-.17,3.43.43,4.52,1.69l27.31,31.46c1.3,1.5,1.64,3.65.93,5.89-.93,2.94-3.38,5.29-6.24,5.99l-53.38,13.16c-.56.14-1.1.21-1.63.21ZM86.77,158.94c-.17,0-.33,0-.5.02-2.23.21-4.42,1.7-5.7,3.89l-26.07,44.62c-1.32,2.25-1.37,4.67-.15,6.3,1.03,1.38,2.76,1.89,4.73,1.41l53.38-13.16c2.53-.62,4.7-2.71,5.53-5.33.6-1.9.34-3.7-.73-4.93l-27.31-31.46h0c-.77-.89-1.89-1.37-3.17-1.37Z" fill="#732a09" stroke-width="0"></path><path d="M86.75,191.76l-3.55.88c-.67.16-1.22-.22-1.25-.88l-.93-17.23c-.04-.71.53-1.45,1.25-1.63l5.4-1.33c.72-.18,1.29.28,1.25,1.01l-.93,17.69c-.04.67-.58,1.33-1.25,1.49Z" fill="#fff" stroke-width="0"></path><path d="M82.89,193.18c-.32,0-.62-.1-.88-.28-.34-.25-.55-.65-.57-1.11l-.93-17.23c-.05-.95.68-1.91,1.63-2.14l5.4-1.33c.5-.13,1-.03,1.35.27.35.29.54.75.52,1.25l-.93,17.69c-.05.9-.75,1.74-1.63,1.95l-3.55.88c-.14.04-.29.05-.42.05ZM87.97,172.03c-.06,0-.12,0-.18.02l-5.4,1.33c-.48.12-.9.65-.87,1.12l.93,17.23c0,.16.07.28.17.36.12.08.28.11.46.06l3.55-.88h0c.45-.11.85-.58.87-1.04l.93-17.69c0-.18-.04-.34-.15-.43-.08-.06-.18-.1-.29-.1Z" fill="#732a09" stroke-width="0"></path><ellipse cx="84.97" cy="197.86" rx="3.95" ry="3.09" transform="translate(-119.54 130.44) rotate(-48.51)" fill="#fff" stroke-width="0"></ellipse><path d="M84.12,201.96c-.74,0-1.41-.22-1.97-.65-.76-.59-1.18-1.51-1.18-2.58,0-2.14,1.74-4.31,3.87-4.84,1.1-.27,2.14-.08,2.93.53.76.59,1.18,1.51,1.18,2.58,0,2.14-1.74,4.31-3.87,4.84-.33.08-.65.12-.97.12ZM85.81,194.76c-.23,0-.47.03-.72.09-1.72.42-3.11,2.16-3.11,3.87,0,.76.28,1.39.79,1.79.54.42,1.28.55,2.08.35,1.71-.42,3.11-2.16,3.11-3.87,0-.76-.28-1.39-.79-1.79-.37-.29-.84-.44-1.35-.44Z" fill="#732a09" stroke-width="0"></path></g><g id="emotion"><path d="M448.09,132.72c0,17.54-14.23,31.77-31.77,31.77-2.88,0-5.66-.38-8.31-1.1-7.41,6.12-22.09,3.99-22.09,3.99,0,0,7.48-3.17,11.45-9.16-7.78-5.79-12.82-15.06-12.82-25.5,0-17.55,14.22-31.78,31.77-31.78s31.77,14.23,31.77,31.78Z" fill="#fff" stroke-width="0"></path><path d="M391.88,168.25c-3.34,0-5.79-.34-6.03-.38-.22-.03-.39-.21-.42-.43-.03-.22.09-.44.3-.52.07-.03,7.07-3.04,10.96-8.59-7.92-6.08-12.64-15.62-12.64-25.61,0-17.8,14.48-32.28,32.27-32.28s32.27,14.48,32.27,32.28-14.48,32.27-32.27,32.27c-2.79,0-5.54-.35-8.19-1.05-4.5,3.57-11.33,4.31-16.25,4.31ZM387.72,167.06c4.06.34,14.3.63,19.97-4.06.12-.1.29-.14.45-.1,2.64.72,5.4,1.08,8.18,1.08,17.24,0,31.27-14.03,31.27-31.27s-14.03-31.28-31.27-31.28-31.27,14.03-31.27,31.28c0,9.84,4.72,19.22,12.62,25.1.21.16.26.46.12.68-2.92,4.4-7.61,7.28-10.07,8.57Z" fill="#732a09" stroke-width="0"></path><circle cx="416.32" cy="132.72" r="18.75" fill="#f75454" stroke-width="0"></circle><path d="M416.32,151.96c-10.61,0-19.25-8.63-19.25-19.25s8.63-19.25,19.25-19.25,19.25,8.63,19.25,19.25-8.63,19.25-19.25,19.25ZM416.32,114.47c-10.06,0-18.25,8.18-18.25,18.25s8.18,18.25,18.25,18.25,18.25-8.18,18.25-18.25-8.19-18.25-18.25-18.25Z" fill="#732a09" stroke-width="0"></path><path d="M421.84,142.67c-2.83-2.98-8.2-2.95-11.04,0-.35.48-1.12.05-.87-.5,2.33-4.83,10.47-4.87,12.78,0,.24.55-.52.97-.87.49h0Z" fill="#732a09" stroke-width="0"></path><path d="M427.42,131.41c-1.42-.89-3.29-.88-4.72,0-.41.34-1.02.05-.87-.5.71-2.06,3.42-2.6,5.17-1.57.55.29,1.94,1.71.97,2.19-.2.07-.39-.03-.55-.13h0Z" fill="#732a09" stroke-width="0"></path><path d="M409.93,131.41c-1.42-.89-3.29-.88-4.71,0-.41.34-1.02.05-.87-.5.71-2.06,3.42-2.6,5.17-1.57.55.29,1.94,1.71.97,2.19-.2.07-.39-.03-.55-.13h0Z" fill="#732a09" stroke-width="0"></path></g></svg>