<svg transform="scale(4)" version="1.1" id="SQ0LQHUZgW" xmlns="http://www.w3.org/2000/svg" xmlns:xlink="http://www.w3.org/1999/xlink" x="0px" y="0px" viewBox="0 0 500 500" xml:space="preserve" class="pbimage_pbimage__wrapper__image__0LEis false"><title>Page Not Found 6</title><style type="text/css"> .st0{fill:#F2EBEB;} .st1{fill:#3299F5;} .st2{fill:#000001;} .st3{clip-path:url(#SVGID_2_-SQ0LQHUZgW);} .st4{fill:#EA8383;}
 .st4{fill:#EA8383;}
 .st2{fill:#000001;}
 .st1{fill:#3299F5;}
 .st0{fill:#F2EBEB;}</style><g id="screen"><path class="st0" d="M43.5,79.5c0,0,403,0.5,409.8-1.3s-0.2,276.1-0.2,276.1l-405.4,1.3L43.5,79.5z" fill="#F2EBEB"></path><path class="st0" d="M43.4,79.4l171.7-0.6l171.6-0.5l42.9-0.3c7.1-0.1,14.3-0.1,21.4-0.4l1.3-0.1l0.6-0.1h0.1c0.1,0,0.2,0,0.4,0
		c0.3,0,0.6,0.2,0.8,0.4c0.2,0.2,0.3,0.5,0.4,0.8c0.1,0.2,0.2,0.5,0.2,0.7c0.1,0.5,0.2,0.9,0.3,1.4c0.3,1.8,0.5,3.6,0.6,5.4
		c0.3,3.6,0.4,7.2,0.6,10.7c0.5,14.3,0.5,28.6,0.5,42.9s-0.1,28.6-0.3,42.9c-0.7,57.2-1.6,114.4-2.9,171.6v0.5h-0.5L250.4,356
		l-101.4,0.4l-101.4,0.3h-1v-1L45,217.3L43.4,79.4z M43.6,79.6l5.2,276l-1-1l101.3-0.3l101.4-0.2l202.7-0.2l-0.5,0.5
		c1.5-57.2,2.8-114.4,3.1-171.6c0.1-14.3,0.1-28.6,0-42.9c-0.1-14.3-0.2-28.6-0.8-42.9c-0.1-3.6-0.3-7.1-0.6-10.7
		c-0.2-1.8-0.3-3.6-0.6-5.3c-0.1-0.4-0.2-0.8-0.3-1.3c-0.1-0.3-0.2-0.7-0.4-1c0,0,0,0.1,0.2,0.1s0.1,0,0,0h-0.2l-0.7,0.1L451,79
		c-7.2,0.3-14.3,0.4-21.5,0.5c-14.3,0.2-28.6,0.3-42.9,0.4c-28.6,0.2-57.2,0.3-85.8,0.3H215L129.2,80L43.6,79.6z" fill="#F2EBEB"></path><polygon class="st1" points="43.5,79.5 43.6,104.1 455.6,102.8 455.5,75.6 	" fill="#3299F5"></polygon><path class="st1" d="M455.6,102.9l-43.6,0.6l-43.6,0.4c-29.1,0.2-58.1,0.4-87.2,0.4l-87.2-0.2h-21.8l-21.8,0.1l-43.6,0.3l0.4-0.7
		l11.5,24.3l-0.6-0.4l84.3-0.6l42.2-0.2l42.2-0.1c28.1-0.1,56.2,0,84.4,0l42.2,0.1l42.2,0.2v0.2l-42.2,0.5l-42.2,0.4
		c-28.1,0.2-56.2,0.5-84.3,0.5l-42.2,0.2l-42.2,0.1l-84.3-0.1h-0.4l-0.2-0.4l-11.3-24.4l-0.3-0.7h0.8h43.6h21.8l21.8-0.1l87.2-0.8
		c29-0.2,58.1-0.2,87.2-0.2l43.6,0.1l43.6,0.3L455.6,102.9z" fill="#3299F5"></path><path class="st1" d="M59.1,115.1c0,0-4.5,0.2-2.2,5s5.9,3.1,6.8,0S60.8,114.5,59.1,115.1z" fill="#3299F5"></path><path class="st1" d="M78,115c0,0-4.5,0.2-2.2,5s5.9,3.2,6.8,0S79.7,114.5,78,115z" fill="#3299F5"></path><path class="st1" d="M94.4,115c0,0-4.5,0.2-2.2,5s5.9,3.2,6.8,0S96.1,114.4,94.4,115z" fill="#3299F5"></path><path class="st2" d="M172.9,251.9l-16.1,1.1l-2.2-63c0,0-8.1-2.1-9.4-2.1s-46.2,68.3-46.2,68.3v5.1l37.5-0.1l-1.1,38.7l23-0.1
		l-1.3-38.3l15.9,1.3L172.9,251.9z M136.8,252.3c0,0-26,2.8-24.8,0.1s24.7-32.6,24.7-32.6L136.8,252.3z" fill="#000001"></path><path class="st2" d="M409.9,248l-16.1,1.1l-2.2-63c0,0-8.1-2.1-9.4-2.1S336,252.3,336,252.3v5.1l37.5-0.1l-1.1,38.7l23-0.1
		l-1.3-38.3l15.9,1.3L409.9,248z M373.8,248.4c0,0-26,2.7-24.8,0.1s24.7-32.6,24.7-32.6L373.8,248.4z" fill="#000001"></path><path class="st2" d="M279.4,205.2c-1.5-8.6-8.4-15.3-17-16.6c-4.7-0.6-10.6-0.2-18.1,2.1c-27,8.3-34.3,106.2,0.4,105.3
		C277.7,295.2,288.1,252.5,279.4,205.2z M246.8,281c-23.8,0.6-18.8-73.8-0.3-80.1c5.2-1.8,9.3-2.1,12.5-1.6
		c5.9,0.9,10.6,6.1,11.7,12.6C276.8,247.8,269.6,280.3,246.8,281z" fill="#000001"></path></g><g id="magnifying-glass"><polygon class="st2" points="278.3,312.5 284,326.8 294.6,321 287.3,307.7 	"></polygon><path class="st1" d="M324.1,423c0,0-43.6-88.4-43.3-94.8s16.4-9,16.4-9s49.2,82.7,52.4,95.4S327.1,428.9,324.1,423z"></path><path class="st1" d="M201.5,198.3c0,0-25.4,29.2-9,70.8s43.3,72.9,100.3,35.1s17.9-102.2-7.5-121.5S210.5,182.7,201.5,198.3z"></path><path class="st0" d="M211.4,207.4c0,0-20.6,23.6-7.3,57.2s35,59,81.2,28.4s14.5-82.7-6-98.3S218.7,194.7,211.4,207.4z"></path><g><defs><path id="SVGID_1_" d="M324.1,423c0,0-43.6-88.4-43.3-94.8s16.4-9,16.4-9s49.2,82.7,52.4,95.4S327.1,428.9,324.1,423z"></path></defs><clipPath id="SVGID_2_-SQ0LQHUZgW"><use xlink:href="#SVGID_1_" style="overflow: visible;"></use></clipPath><g class="st3"><path class="st0" d="M473.3,465.5c0,0-0.1,0-0.1,0l-267.5-84.2c-0.3-0.1-0.4-0.3-0.4-0.6s0.3-0.4,0.6-0.4c0,0,0.1,0,0.1,0
				l267.5,84.2c0.3,0,0.5,0.3,0.4,0.6C473.8,465.4,473.6,465.6,473.3,465.5L473.3,465.5z"></path><path class="st0" d="M478.7,446.6h-0.1l-268.4-79.2c-0.3-0.1-0.4-0.4-0.3-0.6c0.1-0.3,0.3-0.4,0.6-0.3c0,0,0,0,0,0l268.4,79.2
				c0.3,0,0.5,0.3,0.4,0.6S479,446.6,478.7,446.6L478.7,446.6z"></path><path class="st0" d="M483.7,429h-0.1l-269-77c-0.3-0.1-0.4-0.4-0.4-0.6c0.1-0.3,0.4-0.4,0.6-0.4l269,77c0.3,0.1,0.4,0.3,0.4,0.6
				c0,0,0,0,0,0C484.2,428.8,484,429,483.7,429z"></path><path class="st0" d="M488.5,412.3h-0.1l-269.6-75.4c-0.3-0.1-0.4-0.4-0.3-0.6c0.1-0.3,0.3-0.4,0.6-0.3c0,0,0,0,0,0l269.6,75.4
				c0.3,0.1,0.4,0.3,0.4,0.6c0,0,0,0,0,0C488.9,412.1,488.7,412.3,488.5,412.3z"></path><path class="st0" d="M493.7,394.3h-0.1l-271-69.9c-0.3-0.1-0.4-0.3-0.4-0.6c0,0,0,0,0,0c0.1-0.3,0.3-0.4,0.6-0.4l271,69.9
				c0.3,0,0.5,0.3,0.4,0.6S493.9,394.3,493.7,394.3L493.7,394.3z"></path><path class="st0" d="M498.1,379H498l-271.5-68.2c-0.3-0.1-0.4-0.3-0.4-0.6c0.1-0.3,0.3-0.4,0.6-0.4L498.2,378
				c0.3,0.1,0.4,0.3,0.4,0.6C498.5,378.8,498.3,379,498.1,379z"></path><path class="st0" d="M500.9,369.3h-0.1L229,302c-0.3-0.1-0.4-0.3-0.4-0.6c0,0,0,0,0,0c0.1-0.3,0.3-0.4,0.6-0.4c0,0,0,0,0,0
				L501,368.4c0.3,0.1,0.4,0.3,0.4,0.6c0,0,0,0,0,0C501.3,369.2,501.1,369.3,500.9,369.3z"></path><path class="st0" d="M503.3,361h-0.1l-271-70c-0.3-0.1-0.4-0.3-0.4-0.6c0,0,0,0,0,0c0.1-0.3,0.3-0.4,0.6-0.4c0,0,0,0,0,0
				l271,69.9c0.3,0,0.5,0.3,0.4,0.6S503.5,361,503.3,361L503.3,361z"></path><path class="st0" d="M257.1,462.4c0,0-0.1,0-0.1,0c-0.3-0.1-0.4-0.4-0.3-0.6l64.9-226.7c0.1-0.3,0.3-0.4,0.6-0.3c0,0,0,0,0,0
				c0.3,0.1,0.4,0.3,0.4,0.6c0,0,0,0,0,0L257.6,462C257.6,462.2,257.4,462.4,257.1,462.4z"></path><path class="st0" d="M243.5,458.1h-0.1c-0.3-0.1-0.4-0.4-0.3-0.6c0,0,0,0,0,0l66.8-222.9c0.1-0.3,0.4-0.4,0.6-0.4
				c0.3,0.1,0.4,0.4,0.4,0.6L244,457.8C243.9,458,243.7,458.1,243.5,458.1z"></path><path class="st0" d="M228.4,453.8h-0.1c-0.3-0.1-0.4-0.4-0.4-0.6L277.5,280c0.1-0.3,0.4-0.4,0.6-0.4c0.3,0.1,0.4,0.4,0.4,0.6
				l-49.6,173.2C228.8,453.7,228.6,453.8,228.4,453.8z"></path><path class="st0" d="M213.7,449.7h-0.1c-0.3-0.1-0.4-0.4-0.4-0.6l48-173.7c0.1-0.3,0.4-0.4,0.6-0.4c0.3,0.1,0.4,0.4,0.3,0.6
				l-48,173.7C214.1,449.5,213.9,449.7,213.7,449.7z"></path><path class="st0" d="M201.3,446h-0.1c-0.3-0.1-0.4-0.3-0.4-0.6l42.7-175.1c0.1-0.3,0.3-0.4,0.6-0.4c0.3,0.1,0.4,0.3,0.4,0.6
				l-42.7,175.2C201.7,445.9,201.5,446,201.3,446z"></path><path class="st0" d="M188,442.2h-0.1c-0.3-0.1-0.4-0.3-0.4-0.6l41-175.6c0.1-0.3,0.3-0.4,0.6-0.4c0,0,0,0,0,0
				c0.3,0.1,0.4,0.3,0.4,0.6c0,0,0,0,0,0l-41,175.6C188.4,442,188.2,442.2,188,442.2z"></path><path class="st0" d="M179.5,439.8h-0.1c-0.3-0.1-0.4-0.3-0.4-0.6c0,0,0,0,0,0l40.1-175.9c0.1-0.3,0.3-0.4,0.6-0.4c0,0,0,0,0,0
				c0.3,0.1,0.4,0.3,0.4,0.6l-40,175.9C179.9,439.6,179.7,439.8,179.5,439.8z"></path><path class="st0" d="M168.7,436.7h-0.1c-0.3-0.1-0.4-0.3-0.4-0.6c0,0,0,0,0,0l42.7-175.1c0.1-0.3,0.3-0.4,0.6-0.4
				c0.3,0.1,0.4,0.3,0.4,0.6l-42.7,175.1C169.1,436.5,168.9,436.7,168.7,436.7z"></path><path class="st0" d="M309.3,489.1h-0.1c-0.3-0.1-0.4-0.4-0.3-0.6l88.5-283.2c0.1-0.3,0.4-0.4,0.6-0.3c0.3,0.1,0.4,0.3,0.3,0.6
				c0,0,0,0,0,0l-88.5,283.2C309.7,489,309.5,489.1,309.3,489.1z"></path><path class="st0" d="M295.7,484.6h-0.1c-0.3-0.1-0.4-0.4-0.3-0.6l83.6-284c0.1-0.3,0.4-0.4,0.6-0.4c0.3,0.1,0.4,0.4,0.4,0.6
				l-83.6,284C296.2,484.5,296,484.6,295.7,484.6z"></path><path class="st0" d="M280.7,480.3h-0.1c-0.3-0.1-0.4-0.4-0.4-0.6L361.6,195c0.1-0.3,0.3-0.4,0.6-0.4c0,0,0,0,0,0
				c0.3,0.1,0.4,0.4,0.3,0.6l-81.4,284.7C281.1,480.1,280.9,480.3,280.7,480.3z"></path><path class="st0" d="M265.9,476.2c0,0-0.1,0-0.1,0c-0.3-0.1-0.4-0.3-0.4-0.6l79.9-285.2c0.1-0.3,0.4-0.4,0.6-0.4
				c0.3,0.1,0.4,0.4,0.4,0.6l0,0l-79.9,285.2C266.3,476,266.1,476.2,265.9,476.2z"></path><path class="st0" d="M253.6,472.5h-0.1c-0.3-0.1-0.4-0.3-0.4-0.6l74.6-286.6c0.1-0.3,0.3-0.4,0.6-0.4s0.4,0.3,0.4,0.6L254,472.2
				C253.9,472.4,253.8,472.5,253.6,472.5z"></path><path class="st0" d="M240.3,468.7h-0.1c-0.3-0.1-0.4-0.3-0.4-0.6c0,0,0,0,0,0L312.7,181c0.1-0.3,0.3-0.4,0.6-0.4s0.4,0.3,0.4,0.6
				l-72.9,287.1C240.7,468.5,240.5,468.7,240.3,468.7z"></path><path class="st0" d="M231.7,466.2h-0.1c-0.3-0.1-0.4-0.3-0.4-0.6l72-287.4c0.1-0.3,0.3-0.4,0.6-0.4c0.3,0.1,0.4,0.3,0.4,0.6
				l-72,287.4C232.1,466.1,232,466.2,231.7,466.2z"></path><path class="st0" d="M221,463.1h-0.1c-0.3-0.1-0.4-0.3-0.4-0.6c0,0,0,0,0,0L295,175.9c0.1-0.3,0.3-0.4,0.6-0.4s0.4,0.3,0.4,0.6
				l-74.6,286.6C221.4,463,221.2,463.1,221,463.1z"></path><path class="st0" d="M465.4,346.2h-0.1l-220-70.6c-0.3-0.1-0.4-0.4-0.3-0.6c0.1-0.3,0.3-0.4,0.6-0.3c0,0,0,0,0,0l220,70.6
				c0.3,0.1,0.4,0.3,0.3,0.6c0,0,0,0,0,0C465.8,346,465.6,346.2,465.4,346.2z"></path><path class="st0" d="M470.8,327.3c0,0-0.1,0-0.1,0l-221-65.6c-0.3-0.1-0.4-0.4-0.3-0.6c0.1-0.3,0.4-0.4,0.6-0.3l221,65.6
				c0.3,0.1,0.4,0.4,0.3,0.6c0,0,0,0,0,0C471.2,327.1,471,327.3,470.8,327.3z"></path><path class="st0" d="M475.9,309.7c0,0-0.1,0-0.1,0l-221.6-63.4c-0.3-0.1-0.4-0.4-0.4-0.6c0.1-0.3,0.4-0.4,0.6-0.4L476,308.7
				c0.3,0,0.5,0.3,0.4,0.6S476.1,309.7,475.9,309.7L475.9,309.7L475.9,309.7z"></path><path class="st0" d="M480.6,293c0,0-0.1,0-0.1,0l-222.2-61.8c-0.3-0.1-0.4-0.4-0.4-0.6c0.1-0.3,0.4-0.4,0.6-0.4L480.8,292
				c0.3,0,0.5,0.3,0.4,0.6S480.9,293,480.6,293L480.6,293z"></path><path class="st0" d="M485.8,275h-0.1L262,218.6c-0.3-0.1-0.4-0.3-0.4-0.6c0.1-0.3,0.3-0.4,0.6-0.4L485.9,274
				c0.3,0.1,0.4,0.3,0.4,0.6c0,0,0,0,0,0C486.2,274.8,486,275,485.8,275z"></path><path class="st0" d="M490.2,259.7h-0.1L266,205c-0.3-0.1-0.4-0.3-0.4-0.6c0,0,0,0,0,0c0.1-0.3,0.3-0.4,0.6-0.4c0,0,0,0,0,0
				l224.1,54.7c0.3,0.1,0.4,0.3,0.4,0.6C490.6,259.5,490.4,259.7,490.2,259.7z"></path><path class="st0" d="M493,250h-0.1l-224.4-53.7c-0.3-0.1-0.4-0.3-0.4-0.6c0.1-0.3,0.3-0.4,0.6-0.4L493.1,249
				c0.3,0.1,0.4,0.3,0.4,0.6c0,0,0,0,0,0C493.4,249.8,493.2,250,493,250z"></path><path class="st0" d="M495.4,241.7h-0.1l-223.6-56.4c-0.3-0.1-0.4-0.3-0.4-0.6s0.3-0.4,0.6-0.4l223.6,56.4
				c0.3,0.1,0.4,0.3,0.4,0.6C495.8,241.5,495.6,241.7,495.4,241.7z"></path><path class="st0" d="M416.7,525.6c0,0-0.1,0-0.1,0c-0.3-0.1-0.4-0.4-0.3-0.6c0,0,0,0,0,0l88.5-283.2c0.1-0.3,0.4-0.4,0.6-0.3
				c0.3,0.1,0.4,0.4,0.3,0.6l-88.5,283.2C417.1,525.5,416.9,525.6,416.7,525.6z"></path><path class="st0" d="M403.1,521.2c0,0-0.1,0-0.1,0c-0.3-0.1-0.4-0.3-0.3-0.6c0,0,0,0,0,0l83.6-284c0.1-0.3,0.3-0.4,0.6-0.3
				c0,0,0,0,0,0c0.3,0.1,0.4,0.4,0.3,0.6l-83.6,284C403.5,521,403.3,521.2,403.1,521.2z"></path><path class="st0" d="M388,516.8c0,0-0.1,0-0.1,0c-0.3-0.1-0.4-0.3-0.3-0.6c0,0,0,0,0,0L469,231.6c0.1-0.3,0.4-0.4,0.6-0.3
				c0.3,0.1,0.4,0.4,0.4,0.6l-81.5,284.6C388.4,516.7,388.2,516.9,388,516.8z"></path><path class="st0" d="M373.2,512.8h-0.1c-0.3-0.1-0.4-0.3-0.3-0.6c0,0,0,0,0,0l79.9-285.2c0.1-0.3,0.4-0.4,0.6-0.4
				c0.3,0.1,0.4,0.4,0.4,0.6l-79.9,285.2C373.7,512.6,373.5,512.8,373.2,512.8z"></path><path class="st0" d="M360.9,509.1h-0.1c-0.3-0.1-0.4-0.3-0.4-0.6c0,0,0,0,0,0L435,221.8c0.1-0.3,0.3-0.4,0.6-0.4s0.4,0.3,0.4,0.6
				l-74.6,286.6C361.3,508.9,361.1,509.1,360.9,509.1z"></path><path class="st0" d="M347.6,505.2h-0.1c-0.3-0.1-0.4-0.3-0.4-0.6c0,0,0,0,0,0L420,217.5c0.1-0.3,0.3-0.4,0.6-0.4s0.4,0.3,0.4,0.6
				l-72.9,287.1C348,505.1,347.8,505.2,347.6,505.2z"></path><path class="st0" d="M339.1,502.8H339c-0.3-0.1-0.4-0.3-0.4-0.6c0,0,0,0,0,0l72-287.4c0.1-0.3,0.3-0.4,0.6-0.4c0,0,0,0,0,0
				c0.3,0.1,0.4,0.3,0.4,0.6c0,0,0,0,0,0l-72,287.4C339.5,502.6,339.3,502.8,339.1,502.8z"></path><path class="st0" d="M328.3,499.7h-0.1c-0.3-0.1-0.4-0.3-0.4-0.6l74.6-286.6c0.1-0.3,0.3-0.4,0.6-0.4s0.4,0.3,0.4,0.6
				l-74.6,286.6C328.7,499.5,328.5,499.7,328.3,499.7z"></path></g></g><path class="st1" d="M282.9,173.8c-0.2-2.1-0.3-4.2-0.3-6.3c0-2.1,0.1-4.2,0.2-6.2s0.4-4.1,0.7-6.2c0.3-2.1,0.7-4.1,1.2-6.1
		c0.2,2.1,0.4,4.2,0.3,6.3c0,2.1-0.1,4.2-0.2,6.2s-0.4,4.1-0.7,6.2C283.8,169.8,283.4,171.8,282.9,173.8z"></path><path class="st1" d="M290.2,174.9c1.9-2.3,4-4.5,6.1-6.6s4.3-4.2,6.5-6.2s4.5-4,6.8-5.9s4.6-3.8,7.1-5.5c-1.9,2.3-4,4.5-6.1,6.6
		s-4.3,4.2-6.5,6.2s-4.4,4-6.8,5.9S292.7,173.2,290.2,174.9z"></path><path class="st1" d="M298.2,180.4c1.2-0.7,2.4-1.2,3.6-1.6c1.2-0.4,2.5-0.8,3.8-1.1c1.3-0.3,2.6-0.5,3.9-0.7c1.3-0.2,2.7-0.2,4-0.1
		c-1.2,0.7-2.4,1.2-3.6,1.6c-2.5,0.9-5,1.5-7.6,1.8C300.9,180.5,299.6,180.5,298.2,180.4z"></path><path class="st4" d="M253.4,252.4c0,0,12.5,27.8,22.7,24.1s0.8-17.6-6.3-22.1S253.4,252.4,253.4,252.4z"></path><path class="st2" d="M223.4,233.4c1.4,0.4,2.7,0.9,3.9,1.5c1.2,0.6,2.5,1.3,3.6,2c1.2,0.7,2.3,1.5,3.4,2.4c1.1,0.8,2.2,1.8,3.1,2.8
		c-1.4-0.4-2.7-0.9-3.9-1.5c-1.3-0.6-2.5-1.3-3.6-2c-1.2-0.7-2.3-1.5-3.4-2.4C225.4,235.4,224.4,234.5,223.4,233.4z"></path><path class="st2" d="M237.5,230.4c-0.6,0.6-1.1,1.2-1.6,1.9c-0.5,0.6-1,1.3-1.6,1.9c-1.1,1.3-2.2,2.5-3.3,3.6
		c-1.1,1.2-2.4,2.3-3.6,3.4c-1.3,1.1-2.6,2.1-4,3c0.8-1.5,1.8-2.8,2.9-4.1c2.1-2.6,4.4-4.9,7-7.1c0.6-0.5,1.3-1,2-1.5
		C236,231,236.7,230.6,237.5,230.4z"></path><path class="st2" d="M232.5,269.8c2.2-3.8,4.9-7.4,8.1-10.5c3.2-3.2,7-5.7,11.2-7.4c2.2-0.8,4.4-1.2,6.7-1.3c2.3-0.1,4.6,0.3,6.8,1
		c4.2,1.5,8,4.1,10.9,7.5c-3.4-2.7-7.2-4.8-11.4-6c-4.1-1-8.4-0.8-12.4,0.7c-4,1.6-7.6,3.8-10.8,6.7
		C238.4,263.3,235.3,266.4,232.5,269.8z"></path><path class="st2" d="M282.3,234.4c-1,1-2.1,2-3.2,2.8c-2.3,1.7-4.7,3.1-7.2,4.3c-1.3,0.6-2.6,1.1-4,1.5c1-1,2.1-2,3.2-2.8
		c2.3-1.7,4.7-3.1,7.2-4.3C279.6,235.3,280.9,234.8,282.3,234.4z"></path><path class="st2" d="M267.8,231.3c0.8,0.3,1.6,0.6,2.3,1.2c0.7,0.5,1.4,1,2,1.5c1.3,1,2.6,2.2,3.8,3.3c1.2,1.2,2.3,2.4,3.4,3.7
		c1.1,1.3,2.1,2.7,3,4.1c-1.4-0.9-2.8-1.9-4.1-3c-1.3-1.1-2.5-2.2-3.7-3.4s-2.3-2.4-3.4-3.6c-0.6-0.6-1.1-1.3-1.6-1.9
		C269,232.6,268.4,231.9,267.8,231.3z"></path><path class="st2" d="M272.8,266.2c-1.3-1.2-2.4-2.5-3.6-3.7s-2.2-2.5-3.4-3.8s-2.2-2.5-3.3-3.7c-1.1-1.3-2.4-2.4-3.8-3.3
		c1.8,0.2,3.5,1,4.8,2.1c1.4,1.1,2.7,2.3,3.8,3.6c1.1,1.3,2.2,2.7,3.1,4.2C271.4,263,272.2,264.6,272.8,266.2z"></path></g></svg>