<svg transform="scale(4)" id="jZ62Cm5YCa" xmlns="http://www.w3.org/2000/svg" viewBox="0 0 500 500" class="pbimage_pbimage__wrapper__image__0LEis "><title>Page Not Found 6</title><g id="ui"><rect x="66.01" y="135.75" width="385.14" height="206.69" fill="#fff" stroke-width="0"></rect><path d="M451.15,342.94H66.01c-.28,0-.5-.22-.5-.5v-206.69c0-.28.22-.5.5-.5h385.14c.28,0,.5.22.5.5v206.69c0,.28-.22.5-.5.5ZM66.51,341.94h384.14v-205.69H66.51v205.69Z" fill="#732a09" stroke-width="0"></path><path d="M73.08,100.37h371c3.9,0,7.07,3.17,7.07,7.07v28.31H66.01v-28.31c0-3.9,3.17-7.07,7.07-7.07Z" fill="#f75454" stroke-width="0"></path><path d="M451.15,136.25H66.01c-.28,0-.5-.22-.5-.5v-28.31c0-4.17,3.4-7.57,7.57-7.57h371c4.17,0,7.57,3.4,7.57,7.57v28.31c0,.28-.22.5-.5.5ZM66.51,135.25h384.14v-27.81c0-3.62-2.95-6.57-6.57-6.57H73.08c-3.62,0-6.57,2.95-6.57,6.57v27.81Z" fill="#732a09" stroke-width="0"></path><circle cx="81.55" cy="118.06" r="3.42" fill="#fff" stroke-width="0"></circle><path d="M81.55,121.98c-2.16,0-3.92-1.76-3.92-3.92s1.76-3.92,3.92-3.92,3.92,1.76,3.92,3.92-1.76,3.92-3.92,3.92ZM81.55,115.14c-1.61,0-2.92,1.31-2.92,2.92s1.31,2.92,2.92,2.92,2.92-1.31,2.92-2.92-1.31-2.92-2.92-2.92Z" fill="#732a09" stroke-width="0"></path><circle cx="96.35" cy="118.06" r="3.42" fill="#fff" stroke-width="0"></circle><path d="M96.35,121.98c-2.16,0-3.92-1.76-3.92-3.92s1.76-3.92,3.92-3.92,3.92,1.76,3.92,3.92-1.76,3.92-3.92,3.92ZM96.35,115.14c-1.61,0-2.92,1.31-2.92,2.92s1.31,2.92,2.92,2.92,2.92-1.31,2.92-2.92-1.31-2.92-2.92-2.92Z" fill="#732a09" stroke-width="0"></path><circle cx="111.15" cy="118.06" r="3.42" fill="#fff" stroke-width="0"></circle><path d="M111.15,121.98c-2.16,0-3.92-1.76-3.92-3.92s1.76-3.92,3.92-3.92,3.92,1.76,3.92,3.92-1.76,3.92-3.92,3.92ZM111.15,115.14c-1.61,0-2.92,1.31-2.92,2.92s1.31,2.92,2.92,2.92,2.92-1.31,2.92-2.92-1.31-2.92-2.92-2.92Z" fill="#732a09" stroke-width="0"></path></g><g id="_404"><g id="magnifying"><path d="M150.68,350.24c-1.79,0-3.58-.68-4.94-2.05-2.73-2.73-2.73-7.15,0-9.88l55.74-55.74c2.73-2.73,7.15-2.73,9.88,0,2.73,2.73,2.73,7.15,0,9.88l-55.74,55.74c-1.36,1.36-3.15,2.05-4.94,2.05Z" fill="#732a09" stroke-width="0"></path><path d="M150.68,350.74c-2,0-3.88-.78-5.29-2.19-1.41-1.41-2.19-3.29-2.19-5.29s.78-3.88,2.19-5.29l55.74-55.74c1.41-1.41,3.29-2.19,5.29-2.19s3.88.78,5.29,2.19c1.41,1.41,2.19,3.29,2.19,5.29s-.78,3.88-2.19,5.29l-55.74,55.74c-1.41,1.41-3.29,2.19-5.29,2.19ZM206.43,281.03c-1.73,0-3.36.67-4.59,1.9l-55.74,55.74c-1.23,1.22-1.9,2.85-1.9,4.59s.67,3.36,1.9,4.59c1.22,1.23,2.85,1.9,4.59,1.9s3.36-.67,4.59-1.9l55.74-55.74c1.23-1.22,1.9-2.85,1.9-4.59s-.67-3.36-1.9-4.59c-1.22-1.23-2.85-1.9-4.59-1.9Z" fill="#732a09" stroke-width="0"></path><path d="M129.68,374.74c-2.68,0-5.36-1.02-7.41-3.07-4.09-4.09-4.09-10.73,0-14.82l59.83-59.83c4.1-4.09,10.73-4.09,14.82,0,4.09,4.09,4.09,10.73,0,14.82l-59.83,59.83c-2.05,2.05-4.73,3.07-7.41,3.07Z" fill="#f25454" stroke-width="0"></path><path d="M129.68,375.24c-2.93,0-5.69-1.14-7.77-3.22-4.28-4.28-4.28-11.25,0-15.53l59.83-59.83c4.28-4.28,11.25-4.28,15.53,0,4.28,4.28,4.28,11.25,0,15.53l-59.83,59.83c-2.07,2.07-4.83,3.22-7.76,3.22ZM189.51,294.46c-2.56,0-5.11.97-7.06,2.92l-59.83,59.83c-3.89,3.89-3.89,10.22,0,14.12,1.89,1.88,4.39,2.92,7.06,2.92s5.17-1.04,7.06-2.92l59.83-59.83c3.89-3.89,3.89-10.22,0-14.12-1.95-1.94-4.5-2.92-7.06-2.92Z" fill="#732a09" stroke-width="0"></path><path d="M253.18,314.43c-38.48,0-69.78-31.31-69.78-69.78,0-38.48,31.31-69.78,69.78-69.78s69.78,31.31,69.78,69.78-31.31,69.78-69.78,69.78ZM253.18,188.84c-30.77,0-55.81,25.04-55.81,55.81s25.04,55.81,55.81,55.81,55.81-25.04,55.81-55.81c0-30.77-25.04-55.81-55.81-55.81Z" fill="#fff" stroke-width="0"></path><path d="M253.18,314.93c-38.75,0-70.28-31.53-70.28-70.28s31.53-70.28,70.28-70.28,70.28,31.53,70.28,70.28-31.53,70.28-70.28,70.28ZM253.18,175.36c-38.2,0-69.28,31.08-69.28,69.28s31.08,69.28,69.28,69.28,69.28-31.08,69.28-69.28-31.08-69.28-69.28-69.28ZM253.18,300.96c-31.05,0-56.31-25.26-56.31-56.31s25.26-56.31,56.31-56.31,56.31,25.26,56.31,56.31-25.26,56.31-56.31,56.31ZM253.18,189.34c-30.5,0-55.31,24.81-55.31,55.31s24.81,55.31,55.31,55.31,55.31-24.81,55.31-55.31-24.81-55.31-55.31-55.31Z" fill="#732a09" stroke-width="0"></path></g><path d="M160.93,274.8l-.03-10.95-20.98.06-.03-9.92,15.05-52.74,11.16-.03-15.67,52.75,10.44-.03-.06-20.98,10.54-.03.06,20.98h5.06s.03,9.91.03,9.91h-5.06s.03,10.97.03,10.97l-10.54.03Z" fill="#fff" stroke-width="0"></path><path d="M160.93,275.3c-.13,0-.26-.05-.35-.15-.09-.09-.15-.22-.15-.35l-.03-10.45-20.48.05h0c-.13,0-.26-.05-.35-.15-.09-.09-.15-.22-.15-.35l-.03-9.92s0-.09.02-.14l15.05-52.74c.06-.21.26-.36.48-.36l11.16-.03h0c.16,0,.31.07.4.2.09.13.12.29.08.44l-15.48,52.1,9.27-.02-.05-20.48c0-.13.05-.26.15-.35s.22-.15.35-.15l10.54-.03h0c.28,0,.5.22.5.5l.05,20.48h4.56s0-.01,0-.01c.13,0,.26.05.35.15.09.09.15.22.15.35l.03,9.92c0,.28-.22.5-.5.5h-4.56s.03,10.47.03,10.47c0,.28-.22.5-.5.5l-10.54.03h0ZM160.9,263.35c.13,0,.26.05.35.15.09.09.15.22.15.35l.03,10.45,9.54-.03-.03-10.45c0-.28.22-.5.5-.5h4.56s-.02-8.94-.02-8.94h-4.56c-.16,0-.26-.04-.35-.13-.09-.09-.15-.22-.15-.35l-.05-20.48-9.54.03.05,20.48c0,.13-.05.26-.15.35s-.22.15-.35.15l-10.44.03h0c-.16,0-.31-.07-.4-.2-.09-.13-.12-.29-.08-.44l15.48-52.1-10.11.03-14.93,52.31.02,9.35,20.48-.05h0Z" fill="#732a09" stroke-width="0"></path><path d="M351.25,274.57l-.03-10.95-20.98.06-.03-9.92,15.05-52.74,11.16-.03-15.67,52.75,10.44-.03-.06-20.98,10.54-.03.06,20.98h5.06s.03,9.91.03,9.91h-5.06s.03,10.97.03,10.97l-10.54.03Z" fill="#fff" stroke-width="0"></path><path d="M351.25,275.07c-.28,0-.5-.22-.5-.5l-.03-10.45-20.48.05h0c-.28,0-.5-.22-.5-.5l-.03-9.92s0-.09.02-.14l15.05-52.75c.06-.21.26-.36.48-.36l11.16-.03h0c.16,0,.31.07.4.2.09.13.12.29.08.44l-15.48,52.1,9.27-.02-.05-20.48c0-.28.22-.5.5-.5l10.54-.03h0c.13,0,.26.05.35.15.09.09.15.22.15.35l.05,20.48h4.56s0-.01,0-.01c.28,0,.5.22.5.5l.03,9.92c0,.28-.22.5-.5.5h-4.56s.03,10.47.03,10.47c0,.13-.05.26-.15.35s-.22.15-.35.15l-10.54.03h0ZM351.22,263.11c.13,0,.26.05.35.15.09.09.15.22.15.35l.03,10.45,9.54-.03-.03-10.45c0-.28.22-.5.5-.5h4.56s-.02-8.93-.02-8.93h-4.56s0,.01,0,.01c-.28,0-.5-.22-.5-.5l-.05-20.48-9.54.03.05,20.48c0,.13-.05.26-.15.35s-.22.15-.35.15l-10.44.03c-.11,0-.31-.07-.4-.2s-.12-.29-.08-.44l15.48-52.1-10.11.03-14.93,52.32.02,9.35,20.48-.05h0Z" fill="#732a09" stroke-width="0"></path><path d="M271.29,246.9c-.15,0-.29-.06-.39-.19-.17-.22-.14-.53.08-.7l19.58-15.61c.22-.17.53-.14.7.08.17.22.14.53-.08.7l-19.58,15.61c-.09.07-.2.11-.31.11Z" fill="#732a09" stroke-width="0"></path><path d="M290.87,246.9c-.11,0-.22-.04-.31-.11l-19.58-15.61c-.22-.17-.25-.49-.08-.7.17-.22.49-.25.7-.08l19.58,15.61c.22.17.25.49.08.7-.1.12-.24.19-.39.19Z" fill="#732a09" stroke-width="0"></path><path d="M215.6,246.9c-.15,0-.29-.06-.39-.19-.17-.22-.14-.53.08-.7l19.58-15.61c.22-.17.53-.14.7.08.17.22.14.53-.08.7l-19.58,15.61c-.09.07-.2.11-.31.11Z" fill="#732a09" stroke-width="0"></path><path d="M235.18,246.9c-.11,0-.22-.04-.31-.11l-19.58-15.61c-.22-.17-.25-.49-.08-.7.17-.22.49-.25.7-.08l19.58,15.61c.22.17.25.49.08.7-.1.12-.24.19-.39.19Z" fill="#732a09" stroke-width="0"></path><path d="M235.19,271.06c-.16,0-.31-.07-.41-.21-.16-.22-.11-.54.12-.7.21-.15,21.55-15.04,38.14-4.64.23.15.3.46.16.69-.15.23-.46.31-.69.16-16.02-10.04-36.82,4.46-37.03,4.61-.09.06-.19.09-.29.09Z" fill="#732a09" stroke-width="0"></path><path d="M244.44,265.63s4.79,27.81,13.15,27.37c8.36-.44,8.71-6.47,8.2-12.48s-3.1-18.05-3.1-18.05c0,0-8.29-1.03-18.25,3.15Z" fill="#f75454" stroke-width="0"></path><path d="M257.4,293.51c-8.57,0-13.25-26.65-13.45-27.79-.04-.23.08-.46.3-.55,9.96-4.19,18.16-3.23,18.5-3.19.21.03.38.18.43.39.03.12,2.61,12.15,3.11,18.11.32,3.83.31,7.73-1.92,10.29-1.46,1.68-3.67,2.57-6.76,2.73-.07,0-.15,0-.22,0ZM245,265.94c1.39,7.81,6.09,26.57,12.39,26.57.06,0,.11,0,.17,0,2.8-.15,4.78-.93,6.05-2.39,1.99-2.28,1.98-5.93,1.68-9.55-.45-5.33-2.58-15.58-3.02-17.63-1.64-.13-8.86-.44-17.27,3Z" fill="#732a09" stroke-width="0"></path><path d="M258.74,286.98c-.23,0-.43-.15-.49-.38l-5.56-23.45c-.06-.27.1-.54.37-.6.27-.07.54.1.6.37l5.56,23.45c.06.27-.1.54-.37.6-.04,0-.08.01-.12.01Z" fill="#732a09" stroke-width="0"></path></g><path id="cloud" d="M148.96,185.45c-1.69,2.67-4.55,4.43-7.56,5.4-3.01.96-6.2,1.2-9.36,1.37-8.42.47-16.89.59-25.26-.4-2.15.02-4.41-.03-6.22-1.16-2.59-1.62-3.51-5.25-2.41-8.1,1.1-2.85,3.88-4.85,6.87-5.47.46-2.21,2.04-4.16,4.11-5.07,2.06-.91,4.57-.76,6.51.4.67-3.18,1.51-6.63,4.09-8.6,3-2.29,7.56-1.64,10.45.79,2.89,2.43,4.32,6.23,4.79,9.97,2.58-2.66,6.97-2.85,10.34-1.32,1.57.71,3.02,1.77,3.95,3.21,1.71,2.66,1.39,6.31-.3,8.98Z" fill="#fff" stroke-width="0"></path><path d="M120.57,193.07c-5.09,0-9.57-.25-13.85-.75-2.27.04-4.54-.05-6.43-1.23-2.7-1.69-3.84-5.51-2.61-8.7,1.07-2.78,3.71-4.94,6.92-5.71.57-2.24,2.21-4.18,4.32-5.11,2.01-.89,4.39-.84,6.36.1.72-3.29,1.66-6.35,4.14-8.24,3.02-2.31,7.78-1.96,11.07.8,3.07,2.58,4.32,6.35,4.83,9.36,2.6-2.05,6.64-2.39,10.19-.78,1.82.82,3.26,2,4.16,3.39,1.73,2.69,1.61,6.51-.3,9.52-2.03,3.2-5.38,4.82-7.83,5.61-3.07.98-6.37,1.23-9.49,1.39-4.2.23-7.99.35-11.5.35ZM106.78,191.32c7.22.85,14.99.97,25.24.4,3.05-.16,6.28-.4,9.24-1.35,3.24-1.04,5.83-2.89,7.29-5.19,1.7-2.69,1.82-6.08.3-8.44-.8-1.23-2.09-2.28-3.74-3.02-2.88-1.31-7.16-1.48-9.78,1.21-.13.14-.33.18-.52.13-.18-.06-.31-.22-.34-.41-.52-4.16-2.16-7.59-4.62-9.65-2.54-2.13-6.9-3-9.82-.77-2.37,1.81-3.2,4.96-3.9,8.31-.03.16-.14.29-.29.35-.15.07-.32.06-.46-.03-1.81-1.08-4.13-1.22-6.05-.37-1.93.85-3.39,2.66-3.82,4.71-.04.2-.19.35-.39.39-3.03.63-5.52,2.61-6.51,5.16-1.07,2.76-.1,6.06,2.21,7.5,1.66,1.04,3.75,1.1,5.95,1.08Z" fill="#732a09" stroke-width="0"></path><path id="cloud-2" d="M424.45,230.7c-1.69,2.67-4.55,4.43-7.56,5.4-3.01.96-6.2,1.2-9.36,1.37-8.42.47-16.89.59-25.26-.4-2.15.02-4.41-.03-6.22-1.16-2.59-1.62-3.51-5.25-2.41-8.1,1.1-2.85,3.88-4.85,6.87-5.47.46-2.21,2.04-4.16,4.11-5.07,2.06-.91,4.57-.76,6.51.4.67-3.18,1.51-6.63,4.09-8.6,3-2.29,7.56-1.64,10.45.79,2.89,2.43,4.32,6.23,4.79,9.97,2.58-2.66,6.97-2.85,10.34-1.32,1.57.71,3.02,1.77,3.95,3.21,1.71,2.66,1.39,6.31-.3,8.98Z" fill="#fff" stroke-width="0"></path><path d="M396.18,238.32c-4.44,0-9.19-.19-13.97-.76-2.28.04-4.54-.05-6.43-1.23-2.7-1.69-3.84-5.51-2.61-8.7,1.07-2.78,3.71-4.94,6.92-5.71.57-2.24,2.21-4.18,4.33-5.11,2.01-.89,4.38-.84,6.36.1.72-3.29,1.66-6.35,4.14-8.24,3.02-2.31,7.78-1.96,11.07.8,3.07,2.58,4.32,6.35,4.83,9.36,2.6-2.05,6.64-2.39,10.19-.78,1.82.82,3.26,2,4.16,3.39,1.73,2.69,1.61,6.51-.3,9.52h0c-2.03,3.2-5.38,4.82-7.83,5.61-3.07.98-6.37,1.23-9.49,1.39-3.35.19-7.22.36-11.37.36ZM382.26,236.57c7.22.85,14.99.97,25.24.4,3.18-.17,6.27-.4,9.24-1.35,3.24-1.04,5.83-2.89,7.29-5.19h0c1.7-2.69,1.82-6.08.3-8.44-.8-1.23-2.09-2.28-3.74-3.02-2.88-1.31-7.16-1.48-9.77,1.21-.13.14-.33.19-.52.13-.18-.06-.31-.22-.34-.41-.52-4.16-2.16-7.59-4.62-9.65-2.53-2.13-6.9-3-9.82-.77-2.37,1.81-3.2,4.96-3.9,8.31-.03.16-.14.29-.29.35-.15.07-.32.06-.46-.03-1.81-1.08-4.13-1.22-6.05-.37-1.93.85-3.39,2.66-3.82,4.71-.04.2-.19.35-.39.39-3.03.63-5.52,2.61-6.5,5.16-1.07,2.76-.1,6.06,2.21,7.5,1.66,1.04,3.76,1.11,5.95,1.08ZM424.45,230.7h0,0Z" fill="#732a09" stroke-width="0"></path></svg>